/* XPM */
static char *result[] = {
/* columns rows colors chars-per-pixel */
"50 50 70 1 ",
"  c #2F2F2E",
". c #5CB63C",
"X c #5EB939",
"o c #62B53F",
"O c #64BA3B",
"+ c #6DBE3C",
"@ c #74BE3F",
"# c #7BC23E",
"$ c #4F9F54",
"% c #4E955E",
"& c #4F9C58",
"* c #569A5C",
"= c #52AC46",
"- c #5CAD4A",
"; c #54A254",
": c #5CA454",
"> c #60AC4C",
", c #6AAD4D",
"< c #65B542",
"1 c #6CB645",
"2 c #6DB941",
"3 c #6DB34B",
"4 c #71B747",
"5 c #76BC43",
"6 c #7BBD45",
"7 c #75B54D",
"8 c #7AB64E",
"9 c #76B849",
"0 c #7BBA4A",
"q c #62A457",
"w c #66AA53",
"e c #6CAC53",
"r c #6CA55B",
"t c #6FA959",
"y c #75AD55",
"u c #7EAE57",
"i c #73A65B",
"p c #76AB5A",
"a c #7BAD5C",
"s c #6FB052",
"d c #75B252",
"f c #7DB352",
"g c #7DB850",
"h c #77A961",
"j c #77C040",
"k c #7DC143",
"l c #88CD34",
"z c #82C43E",
"x c #8ACC3B",
"c c #94CF3A",
"v c #93D13C",
"b c #99D23C",
"n c #A3D93C",
"m c #ACE234",
"M c #81BF47",
"N c #84BD4C",
"B c #88BE4D",
"V c #82B554",
"C c #84BA51",
"Z c #8ABB50",
"A c #83C146",
"S c #8DC647",
"D c #8FCB41",
"F c #86C149",
"G c #8BC34A",
"H c #90C746",
"J c #92CA45",
"K c #9CD340",
"L c gray71",
"P c gray88",
/* pixels */
"GGCdkGGGGGGGGGGGGGGGGGGGGGGGGGGGGGGGGGGGGGGGGGGGGG",
"GGBh7GGGGGGGGGGGGGGGGGGGGGGGGGGGGGGGGGGGGGGGGGGGGG",
"GGGGGGGGGGGGGGGGGGGGGGGGG5GGGGGGGGGGGGGGJGGGGGGGGG",
"GGGGGGGGGGGGGGGGGGBGGGGGG5BBGGGSGFGGFGGGGGGGGGGGGG",
"GGGGGGGkGGGGGGGGGGNBGGGGG+y8GGGBFGSFFGGGGGGGGGGGGG",
"GGGGGGG3MNGGGGGGGGGGGGGGGGGGGGBAGGGGGGGGGG6kFGGGGG",
"GGGGGGGddVGGGGGGGGGFGGABGGGGGGGGGGGGGGGGGGG4FCGGGG",
"GGGGGGGGGGGGGGGGGGG6MM<CGGGGGGGGGGGGGGGGGGGrwCGGGG",
"GGGGGGGFGGGGGGGGGGGJldgFGGGGGGGBFSjGGGGSGGGGGGGGGG",
"GGGGGGGNGGGGGGGGGGGGqiCGGGGGGAAGGjFFGGGGGGGGGGGGGS",
"GGGGGGNFGGGGGGGGAGGGdBGGGGGGGGlAA-FkkGGGGGGGGGGGGG",
"GGCGGGdfGGGGGGGG@GGGGGGGBBGGGGSAFg6A2GGGGGGGGGGGGG",
"GGGGGGCfGGGGGGZB=fGGGGGGCaGGGGpd;d;gwGGGHGGGGGGGGG",
"GGGGGGGGAGGGGGGGGGGGGGGGGGGGGGGGGGGGGGGGGGGGGGHHGG",
"GGGGGGGGGbGGGFGGGGGGGGGGGGGGGGGGGGGGGGGGGHGGGGGGGG",
"GGGGGAFGG265G2GGGGGGGGGGGGGGGGGGGGGGGGGGGKK0GGGGGG",
"GGGGGG269:oAGXAGGGGGGGNCGGGGGGGGGGGGCGGGGGdfVGGGGG",
"GGGGGGdGd*dBGOFGGGGGGGBGGGGGGGGGGGGGGGGGGG-VCGGGGG",
"GGGGGGGGGGGGGGGGGG5AGGGGGGAAGGGGG#AGFGGGGG3VGGGGGG",
"GGGGGGGGGGGGGGGGGB5GGSG  GD5  GGGb#VGGGGGGGGGGGGGG",
"GGdVGGGGGGGGGGGGGG9BGGG L   L GGGJAZGGGGGGGGGGGGGG",
"GGNGGGGGGGGGAGGGGGGGGGG LPPPP GGGGsFGGGGHHFGGGGfNB",
"GG23FGGGGGSGA6CCGGGGGGG L  L  GGGGGGGGGGHJFGGGGGGG",
"GGNfGGGGGGGGx,CGGGGGGGG LPPPP GGGGGGGGGGGFFGGGGGGG",
"GGGGGGGGGFFFGGGGGGGGGGF LLLLL GGGGGGFfGGGGGGGGGGGG",
"GGGGGGGGGFFGGGGGGGGGGG LLPP   GGGGGGGGGGGGGGGGGGGG",
"GGGGGAGBGGNFGGGGGGGGGG LLP LPP GGGGGGGGGGAGGGGGNGG",
"GGGGGA50GGGGGHGGGGGGGG LPP    GGGGGGGGGGGb5BGGBBGG",
"GGGGGG26GGGGGGGGGGG   LLP P GGGAFGAFGGGGBC49BGGGGG",
"GGGGGZp9ZGGGGAGGGG LL LLP P GGGS+A-CCGGGGVi7BGGGGG",
"GGGGGGGGGGGGG6AFGG          GGGG<s3CGGGGGGGGGGGGGG",
"GGGGGGGGGGGGGdd0GGGGGGGK5GG<NGSGd8gGGGGGGGGGGGGGGG",
"GGGGGJGGGGGGGGGGGGGGkGSvGAG<7GJGGGGGGBFGGGGGGGGGGG",
"GGBBGGGGGGGGGGGGGGGG#AA:A505uBGGGGGGGGGGGGJSGGGGJG",
"GGGGGGGGGGGGGGGGGGGGF59-171NVZGGGGGGGGGGGGGGGFGGGG",
"GGGGGGGGGGGGGGGGGGGGG23y>p3VGGGGGGGGGAGGGGGGGGGBGG",
"GGGGGGGGGGGGGGGGGGGGGGGGGGGGGGGGGGGGGAkGGGGGGGGGGG",
"GGGGAGGGGGGNGGGGGGGGGGGGGGGGGGGGGGSABF@M6G@GBGGGGG",
"GGGGcFGGGGGGGGGnFGGGGGGGGGGGJGGGGGG59B:.0BONCGGGGG",
"GFGG#,fZGGGGGGGK7FGGGGGGGGGGGGGGGGG2Cw%eCG.dBGGGGG",
"GGGGGCGGGGGGGGGV32GGGGGGGGGGGGGGGGGABBNNGGMBGGGJGG",
"GGGGGGGGGGGGGGGCCAGGGGGGGGGGGJJGGGGGGGGGGGGGGGGSGG",
"GGGGGGGG5G0<ZGGGGGGGGGGGGGGGGGGGGGGGGGGGGGGGGGGGGG",
"GGGGGGGGD570CGGGGGGGFG6GGGGGGGGFGGGGGGGGGGVNBGGGGG",
"GGGGGGGG6:puGGGGGHGG0dGGGGGGGGGk5GGGHBGGGBGGGGGGGG",
"GGGGGGGGCtdGGGGGGGGGGkGGHGGGAGGGmMMA@BZGGGGGGGGGGG",
"GGGGGGGGGGGGGGGG0GGGGGGHHGGGA50F7oBMoCGGGGGGGGGGGG",
"GGGGGGGGGGGGGGGGFVGGGGGGGGGGGsg:%raM$uBGGGGG6MNBGG",
"GG9GGGGGGGGGGGGGGGGGGGGGGGGGGFGFCCGG0BGGGGGGGrBVSG",
"GGsdGGGGGGGGGGGGGGGGGGGGGGGGGGGGGGGGGGGGGGGGG$iBGG"
};
