/* XPM */
static char *result[] = {
/* columns rows colors chars-per-pixel */
"50 50 71 1 ",
"  c #2F2F2E",
". c #5CB63C",
"X c #5EB939",
"o c #62B53F",
"O c #64BA3B",
"+ c #6DBE3C",
"@ c #74BE3F",
"# c #7BC23E",
"$ c #4F9F54",
"% c #4E955E",
"& c #4F9C58",
"* c #569A5C",
"= c #52AC46",
"- c #5CAD4A",
"; c #54A254",
": c #5CA454",
"> c #60AC4C",
", c #6AAD4D",
"< c #65B542",
"1 c #6CB645",
"2 c #6DB941",
"3 c #6DB34B",
"4 c #71B747",
"5 c #76BC43",
"6 c #7BBD45",
"7 c #75B54D",
"8 c #7AB64E",
"9 c #76B849",
"0 c #7BBA4A",
"q c #62A457",
"w c #66AA53",
"e c #6CAC53",
"r c #6CA55B",
"t c #6FA959",
"y c #75AD55",
"u c #7EAE57",
"i c #73A65B",
"p c #76AB5A",
"a c #7BAD5C",
"s c #6FB052",
"d c #75B252",
"f c #7DB352",
"g c #7DB850",
"h c #77A961",
"j c #77C040",
"k c #7DC143",
"l c #88CD34",
"z c #82C43E",
"x c #8ACC3B",
"c c #94CF3A",
"v c #93D13C",
"b c #99D23C",
"n c #A3D93C",
"m c #ACE234",
"M c #81BF47",
"N c #84BD4C",
"B c #88BE4D",
"V c #82B554",
"C c #84BA51",
"Z c #8ABB50",
"A c #83C146",
"S c #8DC647",
"D c #8FCA40",
"F c #86C149",
"G c #8BC34A",
"H c #90C746",
"J c #92CA45",
"K c #9CD340",
"L c #DE7586",
"P c gray71",
"I c gray88",
/* pixels */
"GGCdkGGGGGGGGGGGGGGGGGGGGGGGGGGGGGGGGGGGGGGGGGGGGG",
"GGBh7GGGGGGGGGGGGGGGGGGGGGGGGGGGGGGGGGGGGGGGGGGGGG",
"GGGGGGGGGGGGGGGGGGGGGGGGG6GGGGGGGGGGGGGGJHGGGGGGGG",
"GGGGGGGGGGGGGGGGGGBGGGGGG+NBGGGGGNGGNGGGGGGGGGGGGG",
"GGGGGGGkGGGGGGGGGBNGGGGGB+y8GGGBFGGGFGGGGGGGGGGGGG",
"GGGGGGG3ANGGGGGGGGGGGGGGGGGGGGBGGGGGGGGGGG6kAGGGGG",
"GGGGGGGddVGGGGGGGGGAGGABGGGGGGGGGGGGGGGGGGG4AZGGGG",
"GGGGGGGGGGGGGGGGGGG6NM<CGGGGGGGGGGGGGGGGGGGrwCGGGG",
"GGGGGGGFGGGGGGGGGGGJldgGGGGGGGBGGGjGGGGJGGGGGGGGGG",
"GGGGGGGNGGGGGGGGGGGGqiCGGGGGGAAGGjGFGGGGGGGGGGGGGG",
"GGGGGGNFGGGGGGGGAGGGdBGGGGGGGGlAA=GkkGGGGGGGGGGGGG",
"GGCGGGdfGGGGGGGG@GGGGGGGGBGGGGSASg5A<GGGGGGGGGGGGG",
"GGGGGGCfGGGGGGZB=fGGGGGGCpGGGGpd:d&8wGGGGGGGGGGGGG",
"GGGGGGGGAGGGGGGGGGGGGGGGGGGGGGGGGGGGGGGGGGGGGGHHGG",
"GGGGGGGGGbGGGFGGGGGGGGGGGGGGGGGGGGGGGGGGGHGGGGGGGG",
"GGGGGAFGG265G2GGGGGGGGGGGGGGGGGGGGGGGGGGGKK6GGGGGG",
"GGGGGG2k9:oAGOMGGGGGGGNNGGGGGGGGGGGGCGGGGGdgVGGGGG",
"GGGGGGeGd*dBGOAGGGGGGGGBGGSGGGGGGFGGGGGGGG-VCGGGGG",
"GGGGGGGGGGGGGGGGGG6MGGGGGGAAGGGGG#AGBGGGGG3VGGGGGG",
"GGGGGGGGGGGGGGGGGG4GGG  GG  GGGGGbzVGGGGGGGGGGGGGG",
"GGgVGGGGGGGGGGGGGG9BGG P     GGGGJABGGGGGGGGGGGGGG",
"GGNGGGGGGGGFAGGGGGGGGGG P  P GGGGGsFGGGGHHFGGGGVCG",
"GG23GGGGGGGGA6NCGGGGGGG PIIII GGGGGGGGGGHJFGGGGGGG",
"GBMfGGGGGGGGx,CGGGGGGGG PIILL GGGGGGGBGGGANGGGGGGG",
"GGGGGGGGGFFNGGGGGGGGGGF PPPPP GGGGGGGfGGGGGGGGGGGG",
"GGGGGGGGGAGGGGGGGGGGGG PPII   GGGGGGGGGGGGGGGGGGGG",
"GGGGGMGBGGNGGGGGGGGGGG PPI PII GGGGGGGGGGMGGGGGCGG",
"GGGGGA6MGGGGGHGGGGGGGG PII    GGGGGGGGGGGb6BGGBBGG",
"GGGGGG29NGGGGGGGGGG   PPI I GGGAGG6AGGGGBC59BGGGGG",
"GGGGGZp9ZGGGGAGGGG PP PPI I GGGS+A>CCGGGGVr7BGGGGG",
"GGGGGGGGGGGGG6AGGG          GGGG<s3CGGGGGGGGGGGGGG",
"GGGGGGGGGGGGGdd8GGGGGGGK@GG<NGGGd8gGGGGGGGGGGGGGGG",
"GGGGGJGGGGGGGGGGGGGGkGSvGAG<8GJGGFGGGNGGGGSGGGGGGG",
"GGBGGGGGGGGGGGGGGGGGjkA:M5M5uNGGGGGGGGGGGGSSGGGGHG",
"GGGGGGGGGGGGGGGGGGGGG@9-171NVZGGGGGGGGGGGGGGGGGGGG",
"GGGGGGGGGGGGGGGGGGGGG43y>i3VGGGGGGGGGGGGGGGGGGGFGG",
"GGGGGGGGGGGGGHGGGGGGGGGGGGGGGGGGGGGGGAjGGGGGGGGGGG",
"GGGG6GGGGGBMGGGGGGGGGGGGGGGGGGGGGGASNG@M6G#GNGGGHG",
"GGGGcGBGGGBGGGGnFGGGGGGGGGGGJGGGGGGj9Nq.9BO0CGGGGG",
"GFGG#,VBGGGGGGGK7GGGGGGGGGGGGGGGGGG1Cw%eCG.uBGGGGG",
"GGGGGCGGGGGGGGGV35GGGGGGGGGGGGGGGGGMGBNBGGMBGGGJGG",
"GGGGGGGGGGGGGGGCVAGGGGGGGGGGGJJGGGGGGGBGGGGGGGGSGG",
"GGGGGGGG5GN<ZGGGGGGGGGGGGGGGGGGGGGGGGGGGGGGGGGGGGG",
"GGGGGGGGJ530CGGGGGGGAF6GGGGGGGGFGGGGGGGGGGCCGGGGGG",
"GGGGGGGG6:tVGGGGGHGGAdGGGGGGGGG66GGGGGGGGBBGGGGGGG",
"GGGGGGGGCtaGGGGGGGGGG6GGJGGGAGGGmMMM@BCGGGGGGGGGGG",
"GGGGGGGGGGGGGGGG0GGGGGGHHGGGA50G7oMMoCGGGGGGGGGGGG",
"GGGGGGGGGGGGGGGGFfGGGGGGGGGGGsg:%raB;uBGGGGG6MNBGG",
"GG4GGGGGGGGGGGGGGGGGGGGGGGGGGFGFNVGG0BGGGGGGGwBVGG",
"GG3dGGGGGGGGGGGGGGGGGGGGGGGGGGGGGGGGGGGGGGGGG$iBGG"
};
