/* XPM */
static char *result[] = {
/* columns rows colors chars-per-pixel */
"50 50 70 1 ",
"  c #2F2F2E",
". c #5CB63C",
"X c #5EB939",
"o c #62B53F",
"O c #64BA3B",
"+ c #6DBE3C",
"@ c #74BE3F",
"# c #7BC23E",
"$ c #4F9F54",
"% c #4E955E",
"& c #4F9C58",
"* c #569A5C",
"= c #52AC46",
"- c #5CAD4A",
"; c #54A254",
": c #5CA454",
"> c #60AC4C",
", c #6AAD4D",
"< c #65B542",
"1 c #6CB645",
"2 c #6DB941",
"3 c #6DB34B",
"4 c #71B747",
"5 c #76BC43",
"6 c #7BBD45",
"7 c #75B54D",
"8 c #7AB64E",
"9 c #76B849",
"0 c #7BBA4A",
"q c #62A457",
"w c #66AA53",
"e c #6CAC53",
"r c #6CA55B",
"t c #6FA959",
"y c #75AD55",
"u c #7EAE57",
"i c #73A65B",
"p c #76AB5A",
"a c #7BAD5C",
"s c #6FB052",
"d c #75B252",
"f c #7DB352",
"g c #7DB850",
"h c #77A961",
"j c #77C040",
"k c #7DC143",
"l c #88CD34",
"z c #82C43E",
"x c #8ACC3B",
"c c #94CF3A",
"v c #93D13C",
"b c #99D23C",
"n c #A3D93C",
"m c #ACE234",
"M c #81BF47",
"N c #84BD4C",
"B c #88BE4D",
"V c #82B554",
"C c #84BA51",
"Z c #8ABB50",
"A c #83C146",
"S c #8DC647",
"D c #8FCB41",
"F c #86C149",
"G c #8BC34A",
"H c #90C746",
"J c #92CA45",
"K c #9CD340",
"L c gray71",
"P c gray88",
/* pixels */
"GGCdkGGGGGGGGGGGGGGGGGGGGGGGGGGGGGGGGGGGGGGGGGGGGG",
"GGBh7GGGGGGGGGGGGGGGGGGGGGGGGGGGGGGGGGGGGGGGGGGGGG",
"GGGGGGGGGGGGGGGGGGGGGGGGG5GGGGGGGGGGGGGGJGGGGGGGGG",
"GGGGGGGGGGGGGGGGGGBGGGGGG5MBGGGGGFGGFGGGGGGGGGGGGG",
"GGGGGGGkGGGGGGGGGBMGGGGGG+yVGGGGFGGFFGGGGGGGGGGGGG",
"GGGGGGG3MNGGGGGGGGGGGGGGGGGGGGMGGGGGGGGGGGkkFGGGGG",
"GGGGGGGddVGGGGGGGGGFGGABGGGGGGGGGGGGGGGGGGG4kZGGGG",
"GGGGGGGGGGGGGGGGGGG6NM<CGGGGGGGBGGGGGGGGGGGrrCGGGG",
"GGGGGGGFGGGGGGGGGGGJl7gFGGGGGGGMFGjFGGGHGGGGGGGGGG",
"GGGGGGGNGGGGGGGGGGGBqiCGGGGGGAAGGjGAGGGGGGGGGGGGGG",
"GGGGGGNFGGGGGGGGAGGGgCGGGGGGGGxSA-AkkGGGGGGGGGGGGG",
"GGCGGGdfGGGGGGGG@GGGGGGGBBGGGGAAGgkA2GGGGGGGGGGGGG",
"GGGGGGCfGGGGGGZB=fGGGGGGCaGGGGad;d*8wGGGGGGGGGGGGG",
"GGGGGGGGAGGGGGGGSGGGGGGGGGGGGGGGGGGGGGGGGGGGGGHHGG",
"GGGGGGGGGbGGGFGGGGGGGGGGGGGGGGGGGGGGGGGGGHGGGGGGGG",
"GGGGGAFGG265G2GGGGGGGGGGGGGGGGGGGGGGGGGGGKKkGGGGGG",
"GGGGGG2k9:oGGXAGGGGGGGNZGGGGGGGGGGGGZGGGGGffVGGGGG",
"GGGGGGsGd*dMGONGGGFGGGGBGGGGGGGGGGGGFGGGGG-fCGGGGG",
"GGGGGGGGGGGGGGGGGG5AGGGGGGAAGGGGGjAGFGGGGGsCGGGGGG",
"GGGGGGGGGGGGGGGGGB5GGGG  Gx6GGGGGb#CGGGGGGGGGGGGGG",
"GGfVGGGGGGGGGGGGGG9BGGG L     GGGJFZFGGGGGGGGGGGGG",
"GG0GGGGGGGGFAGGGGGGGGGG LPPP P GGGsFGGGGHHFFGGGVCG",
"GG14FGGGGGHGA6NZGGGGGGG LPPPP  GGGGGGGGGHJFGGGGGGG",
"GGNfGGGGGGGGx,CGGGGGGGG L  L   GGGGGGFGGGAFGGGGGGG",
"GGGGGGGGGFFFGGGGGGGGGGF LLLLL  GGGGGFfGGGGGGGGGGGG",
"GGGGGGGGGFGGGGGGGGGGGG LL    P GGGGGGGGGGGGGGGGGGG",
"GGGGGAGBGGNGGGGGGGGGGG LPPPP  GGGGGGGGGGGMGGGGGCGG",
"GGGGGA60GGFGGGGGGGG   LLP P GGGGGGGGGGGGGb6MGGBBGG",
"GGGGGG16FGGGGGGGGG LL LLP P GGGAAFkGGGGGBZ57BGGGGG",
"GGGGGZp9ZGGGGAGGGG          GGGS#A>CZGGGGVi7BGGGGG",
"GGGGGGGGGGGGG6AGGGGGGGGFFGGFGGGG<s3CGGGGGGGGGGGGGG",
"GGGGGGGGGGGGGdd8GGGGGGGK#GG<NGGGsgfFGGGGGGGGGGGGGG",
"GGGGGJGGGGGGGGGGGGGGjGSvFFG<7GHGGGGGGMGGGGGGGGGGGG",
"GGNFGGGGGGGGGGGGGGGG#AA:A505uZGGGGGGGFGGGGJGGGGGHG",
"GGGGGGGGGGGGGGGGGGGGF55-471NCNGGGGGGGGGGGGGGBGGGGG",
"GGGGGGGGGGGGGGGGGGGGG43y>p3VGGGGGGGGGGGGGGGGGGGGGG",
"GGGGGGGGGGGGGGGGGGGGGGGGGGGGGGGGGGGGGAjGGGGGGGGGGG",
"GGGGkGGGGGBNGGGGGGGGGGGGGGGGGGGGGGASBB@M6G@GNGGGGG",
"GGGGcGGGGGGGGGGnFGGGGGGGGGGGHGGGGGGj9N:o0BONZGGGGG",
"GGGGjeVNGGGGGGGK7GGGGGGGGGGGGGGGGGG2C,%wCG.dBGGGGG",
"GGGGGCGGGGGGGGZV35GGGGGGGGGGGGGGGGGMBBNNGGMBGGGHGG",
"GGGGGGGGGGGGGGGCgAGGGGGGGGGGGJJGGSGGGGGGGGGGGGGHGG",
"GGGGGGGG5GC<GGGGGGGGGGGGGGGGGGGGGGGGGGGGGGGGGGGGGG",
"GFGGGGGGc530CGGGGGGGFF6GGGGGGGGFGGGGGGGGGBCNGGGGGG",
"GGGGGGGG6:puGGGGGHGG0dGGGGGGGGGk6GGGGGGGFBBGGGGGGG",
"GGGGGGGGCtdGGGGGGGGGGkGGHGGGAGGGmMMM6BCGSGGGGGGGGG",
"GGGGGGGGGGGGGGGGNFGGGGGHHGGGA55Gd>MMoVGGGGGGGGGGGG",
"GGGGGGGGGGGGGGGGFVGGGGGGGGGGGsg:%rVM$VBGGGGG6MNBGG",
"GG9GGGGGGGGGGGGGGGGGGGGGGGHGGCGFNVGGNNGGGGGGGwBCGG",
"GGsdGGGGGGGGGGGGGGGGGGGGGGGGGGGGGGGGGGGGGGGGG$iBGG"
};
