/* XPM */
static char *_cd05563ced24416d249190459390b78L7Lm3BliT4UO8uqE[] = {
/* columns rows colors chars-per-pixel */
"50 50 196 2 ",
"   c black",
".  c #2E3E42",
"X  c #303F4B",
"o  c #2E4047",
"O  c #2F404B",
"+  c #3A4245",
"@  c #31444C",
"#  c #3B4651",
"$  c #334A55",
"%  c #3B4B55",
"&  c #35525C",
"*  c #355765",
"=  c #335D6C",
"-  c #22606F",
";  c #32657A",
":  c #2F787D",
">  c #434A4F",
",  c #4F5053",
"<  c #596467",
"1  c #5A6E75",
"2  c #5B767E",
"3  c #676A6C",
"4  c #696E70",
"5  c #6A777C",
"6  c #737476",
"7  c #757B7D",
"8  c #2F6E82",
"9  c #346E87",
"0  c #2B7387",
"q  c #327089",
"w  c #2C7B92",
"e  c #5E7A84",
"r  c #6D7C83",
"t  c #7A7E80",
"y  c #29838A",
"u  c #3E8D96",
"i  c #3793A8",
"p  c #318FB4",
"a  c #3C9AB6",
"s  c #2DA5AF",
"d  c #2AADAA",
"f  c #2FA8B4",
"g  c #2BB4BC",
"h  c #588389",
"j  c #468798",
"k  c #5E8492",
"l  c #558A92",
"z  c #5D959C",
"x  c #6E8188",
"c  c #7D8184",
"v  c #648395",
"b  c #7E8F95",
"n  c #528BA0",
"m  c #4897AB",
"M  c #5797A7",
"N  c #5796B5",
"B  c #6E99BD",
"V  c #40AABF",
"C  c #54AFB7",
"Z  c #58BFB6",
"A  c #6DA5A8",
"S  c #72A6AA",
"D  c #68AEB8",
"F  c #7BA5B5",
"G  c #6AB2B4",
"H  c #7CB9BA",
"J  c #169ACF",
"K  c #19B8C1",
"L  c #1DB2DC",
"P  c #39ACCA",
"I  c #25B7C4",
"U  c #3EAAD2",
"Y  c #2CB3DB",
"T  c #2CB9DD",
"R  c #33B8D7",
"E  c #19A4EE",
"W  c #09AEF9",
"Q  c #15AEF4",
"!  c #07BAFA",
"~  c #22AAE3",
"^  c #23B8E8",
"/  c #35BCE0",
"(  c #28BCF1",
")  c #43BCC2",
"_  c #49ACD0",
"`  c #43B9D3",
"'  c #5AB7D2",
"]  c #6AA5C3",
"[  c #71B8C6",
"{  c #68BED8",
"}  c #1AC5CB",
"|  c #36C7CD",
" . c #27C7D0",
".. c #39C1D7",
"X. c #25D7D8",
"o. c #06C5F7",
"O. c #0ECDF7",
"+. c #07CBF9",
"@. c #05D7F8",
"#. c #27C4E4",
"$. c #3CC2E6",
"%. c #33D1ED",
"&. c #2BC7F4",
"*. c #3AD8F3",
"=. c #18EAEB",
"-. c #05E5F7",
";. c #0AEEF3",
":. c #07E4F9",
">. c #13ECF4",
",. c #0AF8F4",
"<. c #17F7F4",
"1. c #2BE3EA",
"2. c #2DFEEF",
"3. c #25FCF2",
"4. c #3CF6F2",
"5. c #31FAF4",
"6. c #3CFDF4",
"7. c #57C6C9",
"8. c #45D5D9",
"9. c #58DCDD",
"0. c #6FCCCC",
"q. c #7DC4C3",
"w. c #7BC6CC",
"e. c #65D9D6",
"r. c #7FDADE",
"t. c #4ECCE7",
"y. c #53CFEE",
"u. c #4ED1E6",
"i. c #47DCEC",
"p. c #5BDBEC",
"a. c #51C7F3",
"s. c #4CD7F6",
"d. c #56D5F0",
"f. c #5CDDF3",
"g. c #71DBED",
"h. c #6FD8F4",
"j. c #49EBEA",
"k. c #51EBF6",
"l. c #48F6F2",
"z. c #43FBF5",
"x. c #54F7F6",
"c. c #5CFBF8",
"v. c #63EAEE",
"b. c #6CEAE9",
"n. c #69E8F5",
"m. c #77E2F1",
"M. c #7BE6F4",
"N. c #77E7F9",
"B. c #67F4F1",
"V. c #6EF3F9",
"C. c #6EFDFA",
"Z. c #79F7F4",
"A. c #76FEFC",
"S. c #7CFEFB",
"D. c #818385",
"F. c #8A8B8C",
"G. c #939495",
"H. c #8F9BA1",
"J. c #95A5A2",
"K. c #83ADB4",
"L. c #98ABB8",
"P. c #A5A6A6",
"I. c #A7A9AA",
"U. c #A9AAAA",
"Y. c #B4B5B5",
"T. c #B8B9B9",
"R. c #8DB3C3",
"E. c #A7BDC4",
"W. c #84C6CD",
"Q. c #85D7D8",
"!. c #B2CACB",
"~. c #BDCACB",
"^. c #BCCCD5",
"/. c #A0D0D6",
"(. c #89EAF6",
"). c #95EFFE",
"_. c #86F6FD",
"`. c #8CF4FC",
"'. c #83FEFC",
"]. c #8BFEFC",
"[. c #9CF6F5",
"{. c #97F8F6",
"}. c #92F2FC",
"|. c #93FDFC",
" X c #9CFDFC",
".X c #A1F8F7",
"XX c #A2FDFD",
"oX c #A9FCFB",
"OX c #C3C3C3",
"+X c #C1C7CB",
"@X c #CACBCB",
"#X c #CBCFD3",
"$X c #D4D7D9",
"%X c #DADBDC",
"&X c #E8D7E4",
"*X c #E2E3E4",
/* pixels */
"                                                                                                    ",
"                                                                                                    ",
"                                                                                                    ",
"                                                                                                    ",
"                                              ~.q.                                                  ",
"                                              /.v.G *X                                              ",
"                                              8.(.p.b                                               ",
"                                            q.k.(.j.D @X                                            ",
"                                          K.i.M.m.p.u.Y.                                            ",
"                                        ~.#.v.m.m.g.u.W.                                            ",
"                                        P i.f.d.p.g.t.'                                             ",
"                                      $X^ s.T V T y.$.[                                             ",
"                                      %XL T ~.  H.Y / ^.                                            ",
"                                        N J       F L.                                              ",
"                                        #XN $X                                                      ",
"                                                B #X                                                ",
"                                              %XE E E.                                              ",
"                                              N W W Q #X                                            ",
"                                            ] W ! a.( ~ *X                                          ",
"                                          U ! o.! h.h.! R.                                          ",
"                                        _ o.&.f.&.(.(.o.'                                           ",
"                                      ^.+.O.N.}.).}.N.+.{                                           ",
"                                      w.@.s.}.`.}.).*.O.E.                                          ",
"                                      ` @.N.`.}._.N.@.R $XJ.                                        ",
"                                      K :.V.`.`.`.k.:.u c I !.                                      ",
"                                    Y.d -.n._._._.k.-.y o K X.+X                                    ",
"                                  L.p y >.4._.S.S.V.;.} - } ;.Z                                     ",
"                                &XR ^ w X.,.S.S.S.'.4.,.<.<.<. .                                    ",
"                                h %.#.g s ,.x.S.A.A.S.z.3.c.6.d G.                                  ",
"                              Y.h ) j a i =.6.A.S.S.S.Z.Z.S.4.: #                                   ",
"                              7 1 j m i a =.2.A.S.S.S.Z.S.S.X.; & P.                                ",
"                              r e C 8.a P 1.2.S.S.S.S.S.'.c.g ; * >                                 ",
"                            Y.r h 9.j.P ..5.z.S.'.'.S.'.S.6.s 8 * > #X                              ",
"                            c x k b.B.l.l.z.C.'.'.'.'.'.S.6.f 9 = % Y.                              ",
"                            c x v 7.Z.Z.Z.'.'.].].'.'.'.'.l.| q = % T.                              ",
"                            c x v M B.{.|.].].].].].].].'.C.j.0 = $ T.                              ",
"                            D.x k n b.`.|.|.|.].].].].].].].c.i * O OX                              ",
"                            I.r e z Z.{.|.|.|.|.|.|.|.|.].|.A.7.& o $X                              ",
"                            T.5 e [ {.[.{.|.|.|.|.|.|.|.|.|.].e.$ 3                                 ",
"                              4 1 r.[..X X X X X X X X X X X|.e.O ~.                                ",
"                              I.< Q..X.XoXXXXX X X XXX XXX X].0.+                                   ",
"                                6 S [.oXoXoXoXXX|.].|. XXX|.'.A OX                                  ",
"                                  t H [. XXX X{.|.|.|.].].|.w.G.                                    ",
"                                    6 2 H W.W.G z l z A A h U.                                      ",
"                                      @X, . @ X O o . 3 Y.%X                                        ",
"                                          @XOXI.F.U.OX                                              ",
"                                                                                                    ",
"                                                                                                    ",
"                                                                                                    ",
"                                                                                                    "
};
