/* XPM */
static char *_30cf249f4c746aee160c5b7e91144973Xu9dHju0mFFceBz[] = {
/* columns rows colors chars-per-pixel */
"50 50 67 1 ",
"  c #2F2F2E",
". c #5DB63C",
"X c #5EB939",
"o c #61B53F",
"O c #64BA3B",
"+ c #6EBE3C",
"@ c #74BE3F",
"# c #78BF3D",
"$ c #7DC43E",
"% c #4E955E",
"& c #4F9C58",
"* c #569A5C",
"= c #53AC46",
"- c #5CAD4A",
"; c #52A154",
": c #5CA455",
"> c #61AC4C",
", c #6AAE4D",
"< c #65B542",
"1 c #6BB645",
"2 c #6DB942",
"3 c #6DB34A",
"4 c #71B747",
"5 c #76BB44",
"6 c #7BBD45",
"7 c #74B54D",
"8 c #7AB64E",
"9 c #76B848",
"0 c #7AB94A",
"q c #63A655",
"w c #65AC50",
"e c #6AAA53",
"r c #6CA55B",
"t c #6EA959",
"y c #73AE54",
"u c #7CAE56",
"i c #72A65B",
"p c #76AB5A",
"a c #7BAE5C",
"s c #6FB052",
"d c #75B252",
"f c #7DB452",
"g c #7FB950",
"h c #77A961",
"j c #7CC143",
"k c #88CD34",
"l c #8ACC3B",
"z c #94CF3A",
"x c #99D33C",
"c c #A2D83C",
"v c #ABE035",
"b c #81BF47",
"n c #84BD4C",
"m c #88BE4D",
"M c #82B554",
"N c #85BA51",
"B c #8ABB50",
"V c #83C146",
"C c #8CC647",
"Z c #8FCA40",
"A c #86C149",
"S c #8BC34A",
"D c #90C746",
"F c #92CA45",
"G c #9CD340",
"H c gray71",
"J c gray88",
/* pixels */
"SSNd6SSSSSSSSSSSSSSSSSSSSSSSSSSSSSSSSSSSSSSSSSSSSS",
"SSShdSSSSSSSSSSSSSSSSSSSSSSSSSSSSSSSSSSSSSSSSSSSSS",
"SSSSSSSSSSSSSSSSSSSSSSSSS6SSSSSSSSSSSSSSFDSSSSSSSC",
"SSSSSSSSSSSSSSSSSSSSSSSSS2nmSSSSSASSNSSSSSSSSSSSSS",
"SSSSSSSjSSSSSSSSSmnASSSSS2yfSSSSASCAASSSSSSSSSSSSS",
"SSSSSSS3ANSSSSSSSSSSSSSSSSSSSSmASSSSSSSSSS6jASSSSS",
"SSSSSSSdffSSSSSSSSSASSSSSSSSSSSSSSSSSSSSSSS4ANSSSS",
"SSSSSSSSSSSSSSSSSSS6V6<NSSSSSSSSSSSSSSSSSSSreNSSSS",
"SSSSSSSASSSSSSSSSSSFkdgASSSSSSSACSjACSSCSSSSSSSSSS",
"SSSSSSAASSSSSSSSSSSAqiMSSSSSSVVSAjAASSSSSSSSSSSSSS",
"SSSSASnmSSSSSSSSVSSSfmSSSSSSSSlVA=AjjSSSSSSSSSSSSS",
"SSnSSSffSSSSSSSS@SSSSSSSAmSSSSCVVgjA2SSSSSSSSSSSSS",
"SSSSSSNfSSSSSSNm=fSSSSSSNpSSSSad:a&9wSSSSSSSSSSSCS",
"SSSSSSSSVSSSSSSSSSSSSSSSSSSSSSSSSSSSSSSSSSSSSSDDSS",
"SSSSSSSSSxSSSASSSSSSSSSSSSSSSSSSSSSSSSSSSDSSSSSSSS",
"SSSSSVASS265S2SSSSSSSSSSSSSSSSSSSSSSSSSSSGG6SSSSSS",
"SSSSSS568:oSSXVSSSSSSSNNSSSSSSSSSSSSNSSSSSffMSSSSS",
"SSSSSSsSd*7nSObSSSASSSS  SSS  SSSASSSSSSSS-fNSSSSS",
"SSSSSSSSSSSSSSSSSS6VSSS H   H SSS$VSmSSSSS7fSSSSSS",
"SSSSSSSSSSSSSSSSSS5ASSS HJJJJ SSSx$MASSSSSSSSSSSSS",
"SSffSSSSSSSSSSSSSA0ASS  H HH     FVBSSSSSSSSSSSSSS",
"SSbSSSSSSSSAVSSSSSSSS JH J  J JH SsASSSSDDASSSSMmS",
"SS24ASSSSSCSV6ANSSSSS J HH  H J SSSSSSSSFFVSSSSSSS",
"SmnfSSSSSSSSl,NSSSSSS JH HHH  J SSSSSSSSSAASSSSSSS",
"SSSSSSSSSSANSSSSSSSSSS HHHJJJ  SSSSSAfSSSSSSSSSSSS",
"SSSSSSSSSASSSSSSSSSSSSV HHJJJ SSSSSSSSSSSSSSSSSSSS",
"SSSSSVSnSSnSSSSSSSSSSS HHJJJ MSSSSSSSSSSSVSSSSSNSS",
"SSSSSV60SSASSDSSSSSSSS HJJJJ SSSSSSSSSSSSx6nSSnmSS",
"SSSSSS20ASSSSSSSSSSSS HHJJJJJ SjASjASSSSmN57mSSSSS",
"SSSSSBy0BSSSSASSSSSSS HH    J SC+V>NNSSSSMi7mSSSSS",
"SSSSSSSSSSSSS6VASSS  H  ASSA  SS<s3NSSSSSSSSSSSSSS",
"SSSSSSSSSSSSSdd0SS HH AG$SS<NSSSd0fSSSSSSSSSSSSSSS",
"SSSSSFSSSSSSSSSSSSS  SCzAAS<7SDSSmSSSASSSSCSSSSSSS",
"SSnmSSSSSSSSSSSSSSSS$VV:V5b5uBSSSSSSSASSSSDSSSSSDS",
"SSSSSSSSSSSSSSSSSSSSA55-271nNmSSSSSSSSSSSSSSSSSSSS",
"SSSSSSSSSSSSSSSSSSSSS23pwp3MSSSSSSSSSASSSSSSSSSASS",
"SSSSSSSSSSSSSDSSSSSSSSSSmSSSSSSSSSSSSVjSSSSSSSSSSS",
"SSSSjSSSSSAnSSSSSSSSSSSSSSSSSSSSSSAVmm@V6S$SNSSSSS",
"SSSSzSSSSSSmSSScSSSSSSSSSSSSDSSSSSS$9n:o0mO0NSSSSS",
"SSSS#eMmSSSSSSSG7VSSSSSSSSSSSASSSSS2N,%eNS.uSSSSSS",
"SSSSSNSSSSSSSSmM34SSSSSSSSSSSSSSSSSnSmnnSSVmSSSFSS",
"SSSSSSSSSSSSSSSNgVSSSSSSSSSSSFFSSSSSSSSSSSSSSSSDSS",
"SSSSSSSS5Cn1SSSSSSSSSSSSSSSSSSSSSSSSSSSSSSSSSSSSSS",
"SASSSSSSZ530NSSSSSSSVS6SSSSSSSSASSSSSSSSSSM0mSSSSS",
"SSSSSSSS6:yaSSSSSCSSjdSSSSSSSSSb6SSSCSSSSSSSSSSSSS",
"SSSSSSSSNtpSSSSSSSSSS6SSDSSSbSSSvbbV6mNSSSSSSSSSSS",
"SSSSSSSSSSSSSSSSnmSSSSSDDSSSA56SdobboNSSSSSSSSSSSS",
"SSSSSSSSSSSSSSSSAMSSSSSSSSSSS3g:%iab&umSSSSS9bmmSS",
"SS9SSSSSSSSSSSSSSSSSSSSSSSSSSASBnMSSnmSSSSSSSqmMSS",
"SS3dSSSSSSSSSSSSSSSSSSSSSSSSSSSSSSSSSSSSSSSSS;imSS"
};
