/* XPM */
static char *_c97ddd82ca747db9bf5dbe7f50f34c1G0EX4AoyIR1z3IK0[] = {
/* columns rows colors chars-per-pixel */
"50 50 210 2 ",
"   c #2E3E42",
".  c #313D44",
"X  c #303F4B",
"o  c #2F404B",
"O  c #2E4047",
"+  c #31444C",
"@  c #3A4245",
"#  c #334A55",
"$  c #3B4B55",
"%  c #3B4651",
"&  c #35525C",
"*  c #335D6C",
"=  c #355765",
"-  c #22606F",
";  c #32657A",
":  c #2F787D",
">  c #434A4F",
",  c #4F5053",
"<  c #5A6E75",
"1  c #5B767E",
"2  c #596467",
"3  c #696E70",
"4  c #6A777C",
"5  c #737476",
"6  c #757B7D",
"7  c #676A6C",
"8  c #2F6E82",
"9  c #346E87",
"0  c #327089",
"q  c #2C7B92",
"w  c #2B7387",
"e  c #5E7A84",
"r  c #6D7C83",
"t  c #607E8A",
"y  c #7A7E80",
"u  c #29838A",
"i  c #3E8D96",
"p  c #3793A8",
"a  c #318FB4",
"s  c #2D9EB1",
"d  c #3C9AB6",
"f  c #2AADAA",
"g  c #2DA5AF",
"h  c #2FA8B4",
"j  c #2BB4BC",
"k  c #588389",
"l  c #468798",
"z  c #5E8492",
"x  c #558A92",
"c  c #5D959C",
"v  c #6E8188",
"b  c #7D8184",
"n  c #648395",
"m  c #7E8F95",
"M  c #528BA0",
"N  c #5797A7",
"B  c #5796B5",
"V  c #4897AB",
"C  c #659DA0",
"Z  c #6E99BD",
"A  c #40AABF",
"S  c #54AFB7",
"D  c #58BFB6",
"F  c #6DA5A8",
"G  c #72A6AA",
"H  c #68AEB8",
"J  c #6AB2B4",
"K  c #7CB9BA",
"L  c #7BA5B5",
"P  c #169ACF",
"I  c #389CC0",
"U  c #19B8C1",
"Y  c #1DB2DC",
"T  c #2BAEC4",
"R  c #39ACCA",
"E  c #25B7C4",
"W  c #38B4CB",
"Q  c #3EAAD2",
"!  c #2CB9DD",
"~  c #2CB3DB",
"^  c #33B8D7",
"/  c #19A4EE",
"(  c #09AEF9",
")  c #15AEF4",
"_  c #07BAFA",
"`  c #22AAE3",
"'  c #35BCE0",
"]  c #28BCF1",
"[  c #23B8E8",
"{  c #43BCC2",
"}  c #49ACD0",
"|  c #43B9D3",
" . c #5AB7D2",
".. c #71B8C6",
"X. c #68BED8",
"o. c #6AA5C3",
"O. c #1AC5CB",
"+. c #36C7CD",
"@. c #39C1D7",
"#. c #25D7D8",
"$. c #27C7D0",
"%. c #0ECDF7",
"&. c #07CBF9",
"*. c #06C5F7",
"=. c #05D7F8",
"-. c #27C4E4",
";. c #3CC2E6",
":. c #33D1ED",
">. c #2BC7F4",
",. c #3AD8F3",
"<. c #18EAEB",
"1. c #05E5F7",
"2. c #07E4F9",
"3. c #0AEEF3",
"4. c #13ECF4",
"5. c #0AF8F4",
"6. c #17F7F4",
"7. c #2DFEEF",
"8. c #25FCF2",
"9. c #31F7F7",
"0. c #3CF6F2",
"q. c #3CFDF4",
"w. c #30FCF0",
"e. c #2BE3EA",
"r. c #57C6C9",
"t. c #48D7DE",
"y. c #41D2D4",
"u. c #58DCDD",
"i. c #6FCCCC",
"p. c #7DC4C3",
"a. c #7BC6CC",
"s. c #65D9D6",
"d. c #7FDADE",
"f. c #5DE1DE",
"g. c #4ECCE7",
"h. c #53CFEE",
"j. c #4ED1E6",
"k. c #47DCEC",
"l. c #5BDBEC",
"z. c #51C7F3",
"x. c #4CD7F6",
"c. c #5CDDF3",
"v. c #56D5F0",
"b. c #71DBED",
"n. c #6FD8F4",
"m. c #49EBEA",
"M. c #51EBF6",
"N. c #43FBF5",
"B. c #48F6F2",
"V. c #5CFBF8",
"C. c #54F7F6",
"Z. c #63EAEE",
"A. c #6CEAE9",
"S. c #69E8F5",
"D. c #77E2F1",
"F. c #7BE6F4",
"G. c #77E7F9",
"H. c #6EF3F9",
"J. c #6EFDFA",
"K. c #67F4F1",
"L. c #76FEFC",
"P. c #7CFEFB",
"I. c #79F7F4",
"U. c #818385",
"Y. c #8A8B8C",
"T. c #939495",
"R. c #8F9BA1",
"E. c #95A5A2",
"W. c #83ADB4",
"Q. c #98ABB8",
"!. c #A5A6A6",
"~. c #A9AAAA",
"^. c #A7A9AA",
"/. c #B4B5B5",
"(. c #B7B7B8",
"). c #B9BABA",
"_. c #8DB3C3",
"`. c #A7BDC4",
"'. c #84C6CD",
"]. c #85D7D8",
"[. c #B6C4CE",
"{. c #BDCACB",
"}. c #B2CACB",
"|. c #BCCCD5",
" X c #A0D0D6",
".X c #89EAF6",
"XX c #95EFFE",
"oX c #86F6FD",
"OX c #8CF4FC",
"+X c #83FEFC",
"@X c #8BFEFC",
"#X c #85F6F5",
"$X c #9CF6F5",
"%X c #92F2FC",
"&X c #93FDFC",
"*X c #9CFDFC",
"=X c #97F8F6",
"-X c #A2FDFD",
";X c #A9FCFB",
":X c #A1F8F7",
">X c #C3C3C3",
",X c #CACBCB",
"<X c #C1C7CB",
"1X c #CBCFD3",
"2X c #D2D3D3",
"3X c #DADBDC",
"4X c #D4D7D9",
"5X c #E8D7E4",
"6X c #E2E3E4",
"7X c #FDFDFD",
/* pixels */
"                                                                                                    ",
"                                                                                                    ",
"                                                                                                    ",
"                                                                                                    ",
"                                              }.p.                                                  ",
"                                               XZ.H 6X                                              ",
"                                              t..Xu.m                                               ",
"                                            p.M..Xk.H ,X                                            ",
"                                          W.k.F.F.l.j.`.                                            ",
"                                        {.-.S.D.D.D.g.'.                                            ",
"                                        R ,.c.v.l.b.g. .                                            ",
"                                      4X[ x.' h ! j.;...                                            ",
"                                      3XY ! {.  R.! ' [.                                            ",
"                                        B P       L Q.                                              ",
"                                        1XB 2X                                                      ",
"                                                Z 1X                                                ",
"                                              4X/ / `.                                              ",
"                                              B ( ( ) |.                                            ",
"                                            o._ _ z.] ` 3X                                          ",
"                                          Q _ *._ n.n._ _.                                          ",
"                                        } *.>.n.>..X.X*. .                                          ",
"                                      |.&.%.G.%XXX%XG.&.X.                                          ",
"                                      a.&.x.%X%XXXXX,.%.`.                                          ",
"                                      | =.H.OX%XOXS.=.^ 2XE.                                        ",
"                                      U 2.H.oXOXOXM.2.i b E [.                                      ",
"                                    /.f 1.S.oXoXoXM.2.u O U #.<X                                    ",
"                                  Q.a w 4.0.oX+X+XH.3.O.- O.5.D                                     ",
"                                5X^ [ q #.5.L.P.P.P.0.5.<.6.6.$.                                    ",
"                                k :.$.T g 5.C.P.L.I.L.N.8.V.q.f T.                                  ",
"                              (.k { i d p <.q.L.P.P.P.L.L.P.0.: %                                   ",
"                              6 e l V p d <.7.L.P.P.P.I.P.L.#.; & !.                                ",
"                              4 t S y.d R e.w.L.P.+X+XP.+XV.j ; = >                                 ",
"                            /.r k u.m.R @.9.N.P.+X+XP.+XP.N.g 8 = > ,                               ",
"                            b r z A.K.B.B.N.J.+X+X+X+X+XP.q.h 9 * $ (.                              ",
"                            b r n r.I.#XL.#X+X@X+X@X@X+XP.B.+.0 * $ (.                              ",
"                            b v n N K.#X&X@X@X@X@X@X@X+X+XJ.m.w * # (.                              ",
"                            U.r z M A.&X&X&X@X@X@X@X@X@X@X@XV.p = o >                               ",
"                            ~.r e c I.=X=X&X&X&X@X&X&X&X@X&XL.r.& O 2                               ",
"                            ).4 e ..=X$X&X=X&X&X&X&X*X*X&X&X@Xs.# 3                                 ",
"                              3 < d.$X:X*X*X*X*X*X*X*X&X*X*X&Xs.o {.                                ",
"                              ^.2 ].:X:X;X-X-X-X*X*X*X*X-X-X+Xi.@                                   ",
"                                5 G $X;X;X;X;X-X&X@X&X*X*X&X+XF >                                   ",
"                                  6 K =X-X-X*X&X&X&X&X&X@X&X'.T.                                    ",
"                                    5 1 K '.'.J c x c F F k ~.                                      ",
"                                      ,X, . O X o O   7 /.4                                         ",
"                                          ,X>X^.Y.~.>                                               ",
"                                                                                                    ",
"                                                                                                    ",
"                                                                                                    ",
"                                                                                                    "
};
