/* XPM */
static char *_ab99297a2e8447cfaa27ceb5fada599QJ58w1BY9p8cljEf[] = {
/* columns rows colors chars-per-pixel */
"50 50 178 2 ",
"   c #261F1B",
".  c #25221D",
"X  c #2A211E",
"o  c #242624",
"O  c #2C2621",
"+  c #2E2A22",
"@  c #2F2728",
"#  c #222D2C",
"$  c #342B24",
"%  c #3A2F25",
"&  c #322D2B",
"*  c #363027",
"=  c #3D3226",
"-  c #33332D",
";  c #3C3328",
":  c #353132",
">  c #3B3534",
",  c #3C3A36",
"<  c #363439",
"1  c #3B3539",
"2  c #3D3A3C",
"3  c #433325",
"4  c #4C3325",
"5  c #44392B",
"6  c #4D3B29",
"7  c #513D27",
"8  c #533D2C",
"9  c #5B3F2D",
"0  c #453A34",
"q  c #453A37",
"w  c #4A3E34",
"e  c #433D3D",
"r  c #594127",
"t  c #55412C",
"y  c #5B422E",
"u  c #4E4237",
"i  c #44403E",
"p  c #4E423D",
"a  c #554235",
"s  c #5B4639",
"d  c #63462E",
"f  c #62492E",
"g  c #6B4A2D",
"h  c #714F2C",
"j  c #76512F",
"k  c #634533",
"l  c #644A34",
"z  c #6A4C31",
"x  c #694A36",
"c  c #744C34",
"v  c #784F33",
"b  c #6C513B",
"n  c #755135",
"m  c #7B5332",
"M  c #7E5A37",
"N  c #73543A",
"B  c #7B523B",
"V  c #7C5A3C",
"C  c #3A3840",
"Z  c #433F43",
"A  c #444145",
"S  c #4A4445",
"D  c #4B464B",
"F  c #4B484E",
"G  c #574D48",
"H  c #5B4C4A",
"J  c #55514A",
"K  c #4E4B55",
"L  c #514C54",
"P  c #554F59",
"I  c #58575C",
"U  c #664B42",
"Y  c #6D4F45",
"T  c #675047",
"R  c #6A5347",
"E  c #6B534D",
"W  c #755143",
"Q  c #7C5544",
"!  c #775A44",
"~  c #7B5B45",
"^  c #71544B",
"/  c #665D5D",
"(  c #795C52",
")  c #545464",
"_  c #5B5C65",
"`  c #5C5C6A",
"'  c #685D62",
"]  c #765E62",
"[  c #68666E",
"{  c #776463",
"}  c #696875",
"|  c #825436",
" . c #895639",
".. c #835839",
"X. c #825D3A",
"o. c #8B5C3A",
"O. c #92643E",
"+. c #855840",
"@. c #876246",
"#. c #9E6740",
"$. c #966946",
"%. c #9F6C45",
"&. c #866458",
"*. c #996D53",
"=. c #9E7451",
"-. c #997258",
";. c #A67349",
":. c #AB764B",
">. c #AA7A57",
",. c #B77A50",
"<. c #847476",
"1. c #5FB73C",
"2. c #62B63F",
"3. c #69BC3C",
"4. c #75BE3F",
"5. c #7DC43E",
"6. c #4E985C",
"7. c #569A5C",
"8. c #53AC46",
"9. c #5CAD4A",
"0. c #52A154",
"q. c #5CA455",
"w. c #61AC4C",
"e. c #6AAE4D",
"r. c #65B542",
"t. c #6BB645",
"y. c #6DB941",
"u. c #6DB34B",
"i. c #71B747",
"p. c #76BC44",
"a. c #7ABD45",
"s. c #74B54D",
"d. c #7AB64E",
"f. c #75B848",
"g. c #7AB94B",
"h. c #64A656",
"j. c #6CAA56",
"k. c #6CA55B",
"l. c #73AE54",
"z. c #7CAE56",
"x. c #72A65B",
"c. c #76AC5A",
"v. c #7BAE5C",
"b. c #6FB052",
"n. c #76B252",
"m. c #7DB452",
"M. c #7FB950",
"N. c #7EC144",
"B. c #85C939",
"V. c #8ACC3B",
"C. c #92D03C",
"Z. c #99D33C",
"A. c #A2D83C",
"S. c #81BF47",
"D. c #84BD4C",
"F. c #88BE4D",
"G. c #82B554",
"H. c #85BA51",
"J. c #8ABB50",
"K. c #83C246",
"L. c #8CC647",
"P. c #8FCB41",
"I. c #86C149",
"U. c #8BC34A",
"Y. c #90C746",
"T. c #92CA45",
"R. c #9CD340",
"E. c #6D7086",
"W. c #747585",
"Q. c #777A8D",
"!. c #827482",
"~. c #807E90",
"^. c #7D84A0",
"/. c #878898",
"(. c #858E99",
"). c #8E949F",
"_. c #919A9F",
"`. c #939FA4",
/* pixels */
"U.U.U.U.U.U.U.U.U.U.U.U.U.U.U.U.U.U.U.U.U.U.U.U.U.U.U.U.U.U.U.U.U.U.U.U.U.U.H.m.a.U.U.U.U.U.U.U.U.U.",
"U.U.U.U.U.U.U.U.U.U.U.U.U.U.U.U.U.U.U.U.U.U.U.U.U.U.U.U.U.U.U.U.U.U.U.U.U.U.F.v.u.U.U.U.U.U.U.U.U.U.",
"U.U.U.U.U.U.U.U.U.U.U.a.U.U.U.U.U.U.U.U.U.U.U.U.U.U.T.L.U.U.U.U.U.U.U.U.U.U.U.U.U.U.U.U.U.U.U.U.U.U.",
"U.U.U.U.F.U.U.U.U.U.U.y.D.F.U.U.U.U.U.U.U.U.F.U.U.U.U.U.U.U.U.U.U.U.U.U.U.U.U.U.U.U.U.U.U.U.U.U.U.U.",
"U.U.U.F.D.I.U.U.U.U.U.y.l.m.U.U.U.D.D.U.L.U.I.U.U.U.U.U.U.U.U.U.U.U.U.U.U.U.U.U.U.U.U.K.U.U.U.U.U.U.",
"U.U.U.U.U.U.U.U.U.U.U.U.U.U.U.U.D.U.U.U.U.D.U.U.U.U.U.U.a.K.K.U.U.U.U.U.U.U.U.U.U.U.U.u.K.D.U.U.U.U.",
"U.U.U.U.U.I.U.U.I.U.U.U.U.U.U.U.U.U.U.U.U.U.U.U.U.U.U.U.U.t.K.H.U.U.U.U.U.U.U.U.U.U.U.c.n.m.U.U.U.U.",
"U.U.U.U.U.a.S.S.r.H.U.U.U.U.U.U.U.U.U.U.U.U.U.U.U.U.U.U.U.k.j.F.U.U.U.U.U.U.U.U.U.U.U.U.U.U.U.U.U.U.",
"U.U.U.U.U.T.V.s.d.F.U.U.U.U.U.U.U.I.U.U.N.U.U.U.U.L.U.U.U.U.U.U.U.U.U.U.U.U.U.U.U.U.U.U.U.U.U.U.U.U.",
"U.U.U.U.U.I.h.x.H.U.U.U.U.U.U.K.K.U.U.p.K.I.U.U.U.U.U.U.U.U.U.U.U.U.U.U.U.U.U.U.U.U.I.D.U.U.U.U.U.U.",
"U.U.K.U.U.U.m.F.U.U.U.U.U.U.U.U.V.K.K.8.K.N.a.U.U.U.U.U.U.U.U.U.U.U.U.U.U.U.U.U.U.U.D.D.U.U.U.U.U.U.",
"U.U.4.U.U.U.U.U.U.U.U.F.U.U.U.U.L.K.L.M.a.K.y.U.U.U.U.U.U.U.U.U.U.U.U.U.U.U.D.U.U.U.d.m.U.U.U.U.U.U.",
"D.F.8.m.U.U.U.U.U.U.H.c.U.U.U.U.c.n.0.n.6.g.w.U.U.U.U.U.U.U.U.U.U.U.U.U.U.U.F.U.U.U.D.m.U.U.U.U.U.U.",
"U.U.U.U.U.U.U.U.U.U.U.U.U.U.U.U.U.U.U.U.U.U.U.U.U.U.U.U.U.U.U.U.T.Y.U.U.U.U.U.U.U.U.U.F.K.U.U.U.U.U.",
"U.U.U.U.U.U.U.U.U.U.U.U.U.U.U.U.U.U.U.U.U.U.U.U.U.U.U.Y.U.Y.U.U.U.U.U.U.U.U.U.U.U.U.U.U.U.Z.U.U.U.U.",
"U.U.U.U.U.U.U.U.U.U.U.U.U.U.U.U.U.U.U.U.U.U.U.U.U.U.U.R.R.a.U.U.U.U.U.U.U.U.U.U.U.S.U.U.U.y.a.p.U.p.",
"K.U.U.U.U.U.U.U.D.H.U.U.U.U.U.U.U.U.U.U.U.U.H.U.U.U.U.U.d.m.G.U.U.U.U.U.U.U.U.U.U.U.4.a.g.7.3.U.L.1.",
"S.U.U.U.I.U.U.U.I.U.U.U.U.U.U.U.U.U.U.U.U.U.U.U.U.U.U.U.9.G.H.U.U.U.U.U.U.U.U.U.U.U.l.U.s.7.s.D.U.2.",
"U.U.U.U.g.K.U.U.L.U.U.U.K.L.U.U.U.U.U.N.K.U.F.U.U.U.U.U.u.H.U.U.U.U.U.U.U.U.U.U.U.U.I.U.U.U.U.U.U.U.",
"U.U.U.U.f.I.U.U.U.U.U.U.T.p.U.U.U.U.L.Z.N.G.F.U.U.U.U.U.U.U.U.U.U.U.U.U.U.U.U.U.U.U.U.U.U.U.U.U.U.U.",
"U.U.U.U.g.I.U.U.U.U.U.U.K.g.U.U.U.U.U.T.K.F.U.U.U.U.U.U.U.U.U.U.U.U.U.U.U.U.z.G.U.U.U.U.U.U.U.U.U.U.",
"U.U.U.U.U.U.U.U.U.U.U.U.U.U.U.U.U.U.U.U.u.I.U.U.U.U.L.T.F.U.U.U.F.H.D.F.U.I.S.F.U.U.U.U.U.U.U.I.K.U.",
"S.H.U.U.U.U.U.U.U.I.U.U.U.U.U.U.U.U.U.U.U.U.U.U.U.U.T.T.D.U.U.U.U.U.U.U.U.U.y.t.D.U.U.U.U.U.Y.U.B.a.",
"G.U.U.U.U.U.U.U.U.U.U.U.U.U.U.U.U.U.U.U.U.U.U.I.U.U.I.S.F.U.U.U.U.U.U.U.U.U.D.G.L.U.U.U.U.U.U.U.V.e.",
"U.U.U.U.U.U.U.U.I.I.U.U.U.U.U.U.U.U.U.U.U.U.D.G.U.U.U.U.U.U.U.U.U.U.U.U.U.U.U.U.U.U.U.U.U.I.U.D.F.U.",
"U.U.U.U.U.U.U.U.S.a.p.U.U.U.F.U.U.U.U.U.U.U.U.U.U.U.U.U.U.U.U.U.U.U.U.U.U.U.U.U.U.U.U.U.U.D.U.U.U.U.",
"U.U.U.U.U.U.U.U.S.g.n.U.U.U.U.m.U.U.U.U.U.U.U.U.U.U.U.K.U.U.U.U.U.H.U.U.U.U.U.U.U.I.I.F.U.U.D.U.U.U.",
"U.U.U.U.U.U.U.U.U.U.U.U.U.U.U.U.U.U.U.U.U.U.U.U.U.U.U.Z.a.F.U.U.F.F.U.U.U.U.U.U.L.K.a.g.U.U.U.U.U.Y.",
"U.U.Y.U.U.U.U.U.U.U.U.U.U.U.U.U.U.K.I.U.S.K.U.U.U.& H.H.y.f.F.U.U.U.U.U.U.U.U.U.U.U.y.g.F.U.U.U.U.U.",
"U.U.U.U.U.U.U.U.U.U.U.U.U.U.U.U.U.L.p.K.9.H.J.0 9 ..U 1 x.s.F.U.U.U.U.U.U.U.U.U.U.J.c.f.J.U.U.U.U.K.",
"S.U.U.U.U.U.U.U.U.U.U.U.U.U.U.U.U.U.2.b.i.1 9 9 Y <.D K ; & U.U.L.U.U.U.U.U.U.U.U.U.U.U.U.U.U.U.U.a.",
"n.d.U.U.U.U.U.U.U.Z.4.U.U.r.g.U.U.U.l.& k B W K Z ' @ 0 b 0 D , # U.U.U.U.U.U.U.U.U.U.U.U.U.U.U.U.n.",
"U.U.U.U.U.I.N.U.K.C.U.K.U.r.s.L.L.5 s +.&.G L K F = l @.E T 5 V n ; U.U.U.U.U.U.U.T.U.U.U.U.U.U.U.U.",
"U.U.U.U.U.U.5.N.K.q.K.f.a.f.z.F.b $.+.U W.Z Z s 9  .v t ..;.$.j m g u 2 U.J.D.U.U.U.U.U.U.U.U.U.U.U.",
"U.U.U.U.U.U.U.p.p.9.t.d.t.% k = ^ ( K F 2 % r v | j | | h n X.;.o.G 2 w c w # L.U.U.U.U.U.U.U.U.U.U.",
"U.U.U.U.U.U.U.i.u.c.w.= k B Q } [ F F a l M m h h | m o.o.| c x X.>.Q ~ H K D O U.U.U.U.U.U.U.U.U.U.",
"U.U.U.U.U.U.U.U.U.0 N +.&.' L Z < 6 y y 6 ;.O.#.m h | | ;.O.v  .x 0 S Q., S a y t X U.U.U.U.U.L.I.T.",
"U.U.U.U.U.U.U.U.U.N :.*.E.^.W.p u T ] E 8 u V %.;...|  .h ,.m W E K D 2 X 8 | k 6 ; o U.U.U.U.D.F.U.",
"U.A.I.U.U.U.U.U.U.w l %.-.<./ W e : K ) Q.S J s N M O.o.r @.!./ K D 0 8   9 d 3 * O D.U.U.U.U.U.U.U.",
"U.R.n.I.U.U.U.U.U.U.U.* x @.>.L < = t w I ` : D D t 8 ! P D D > ; y n l $ 7 3 o 5.e.G.J.U.U.U.U.U.U.",
"I.G.u.p.U.U.U.U.U.U.U.U.U.- R Q.).J B l `._   4 t ( { F K Z : V v c t ; O o # U.I.F.F.U.U.U.U.U.U.U.",
"U.H.M.N.U.U.U.U.U.U.U.U.U.U.U.L (./.P F ) C 3 b G P ' , Z O O @.y ; $ O U.U.U.U.U.L.U.U.U.U.U.U.U.U.",
"U.U.U.U.U.U.U.U.U.U.U.U.U.U.U.U.U._ P Z & : ^.`.) D 5 r n t O y ; . U.U.U.U.U.U.U.U.U.U.p.L.H.r.F.U.",
"U.U.U.U.U.U.S.U.a.U.U.U.U.U.L.U.U.# # o . ! / ^.(.y n g 3 = O o # U.U.U.U.U.U.U.U.U.U.U.V.p.s.g.F.U.",
"U.U.U.Y.U.U.K.n.U.U.U.U.U.U.U.U.U.a.a.L.U., N W N %.d ; % + U.U.U.U.U.U.U.U.U.U.U.U.U.U.a.q.l.m.F.U.",
"U.U.U.U.U.U.U.a.U.U.T.U.U.U.K.U.U.U.A.K.S.K.a.w l $.8 O U.U.U.U.U.U.U.U.U.U.U.U.U.U.U.U.H.k.v.U.U.U.",
"U.U.M.U.U.U.U.U.U.L.U.U.U.U.K.a.f.U.n.r.S.K.2.H.U.$ U.U.U.U.U.U.U.U.U.U.U.U.U.U.U.U.U.U.U.U.U.U.U.U.",
"U.U.U.m.U.U.U.U.U.U.U.U.U.U.U.e.H.q.6.k.v.S.6.G.D.U.U.U.U.U.g.N.J.F.U.U.U.U.U.U.U.U.U.U.U.U.U.U.U.U.",
"U.U.U.U.U.U.U.U.U.U.U.U.U.U.U.H.U.I.H.H.U.U.M.U.U.U.U.U.U.U.U.h.F.H.U.U.U.U.s.I.U.U.U.U.U.U.U.U.U.U.",
"U.U.U.U.U.U.U.U.U.U.U.U.U.U.U.U.U.U.U.U.U.U.U.U.U.U.U.U.U.U.U.0.x.F.U.U.U.U.u.m.U.U.U.U.U.U.U.U.U.U."
};
