/* XPM */
static char *_bc210cb089a442996748b4b522a40d0UvZ9eW8v03oAE7mg[] = {
/* columns rows colors chars-per-pixel */
"50 50 230 2 ",
"   c #0A0402",
".  c #18090D",
"X  c #0B180C",
"o  c #16160B",
"O  c #1C0E1C",
"+  c #190616",
"@  c #141213",
"#  c #1A1316",
"$  c #151915",
"%  c #1C121B",
"&  c #1C1A1A",
"*  c #17161A",
"=  c #0D1419",
"-  c #200F0F",
";  c #220B1E",
":  c #270B16",
">  c #21131E",
",  c #24181E",
"<  c #19251C",
"1  c #160D21",
"2  c #1C1520",
"3  c #191824",
"4  c #2C0E2D",
"5  c #270825",
"6  c #330527",
"7  c #231321",
"8  c #2B122B",
"9  c #2D1B2C",
"0  c #261A28",
"q  c #32152D",
"w  c #341B2D",
"e  c #391A2C",
"r  c #2E0C31",
"t  c #330834",
"y  c #291538",
"u  c #351634",
"i  c #331B33",
"p  c #3B133C",
"a  c #3B1C3B",
"s  c #371937",
"d  c #1E2027",
"f  c #29212C",
"g  c #3C243B",
"h  c #382439",
"j  c #42192C",
"k  c #47263C",
"l  c #361643",
"z  c #3F2540",
"x  c #431A43",
"c  c #481847",
"v  c #442244",
"b  c #472B46",
"n  c #51274A",
"m  c #492652",
"M  c #582656",
"N  c #543750",
"B  c #622454",
"V  c #60244A",
"C  c #5A3665",
"Z  c #5C4555",
"A  c #6C4F5F",
"S  c #71506C",
"D  c red",
"F  c #824C76",
"G  c #FF5F65",
"H  c #FD6062",
"J  c #7F6080",
"K  c #717ACC",
"L  c #886787",
"P  c #927190",
"I  c #8F798E",
"U  c #A56C9A",
"Y  c #AB6A96",
"T  c #B072A9",
"R  c #895689",
"E  c #D47DE8",
"W  c #EF7BE0",
"Q  c #F37CE5",
"!  c #E979F4",
"~  c #4B8AC6",
"^  c #628ED0",
"/  c #7794D7",
"(  c #6894D0",
")  c #6DA7C6",
"_  c #75ADCE",
"`  c #8F8A9D",
"'  c #A5809D",
"]  c #8699B8",
"[  c #B89BB7",
"{  c #AF90A9",
"}  c #FC8589",
"|  c #FB8587",
" . c #FA9EA5",
".. c #F5B4BA",
"X. c #9C8ED5",
"o. c #9A94D5",
"O. c #8F91CC",
"+. c #A78ADC",
"@. c #B886DA",
"#. c #AC98DD",
"$. c #BC9BDB",
"%. c #93AFCE",
"&. c #94AAD2",
"*. c #90ADCA",
"=. c #BEA8C4",
"-. c #A5AED1",
";. c #AAA6DC",
":. c #B4AFDD",
">. c #A7B4D9",
",. c #B6BBDC",
"<. c #BFB0C8",
"1. c #9490E2",
"2. c #BA89E3",
"3. c #9DB7E2",
"4. c #B2BEE1",
"5. c #C185D9",
"6. c #D68BDE",
"7. c #C694DB",
"8. c #D09CCD",
"9. c #E08FDE",
"0. c #EC93DD",
"q. c #F89EDE",
"w. c #C5A4C6",
"e. c #CAA7C5",
"r. c #C6B6C7",
"t. c #D2B8CA",
"y. c #D4A7D7",
"u. c #C9B5DC",
"i. c #D3B5D8",
"p. c #E8A5D8",
"a. c #C98BE4",
"s. c #D585EA",
"d. c #CD9AEB",
"f. c #D89AE5",
"g. c #D793F9",
"h. c #E788EA",
"j. c #F286EC",
"k. c #E896E8",
"l. c #FB9DEA",
"z. c #F798E6",
"x. c #EA89F6",
"c. c #F58AF3",
"v. c #F984F7",
"b. c #E896F4",
"n. c #F59BFE",
"m. c #F998F4",
"M. c #C4A4E6",
"N. c #DBA3EC",
"B. c #DCB4ED",
"V. c #D2B6E4",
"C. c #DDA8F1",
"Z. c #CEB2E1",
"A. c #ECA3EC",
"S. c #E6A6E6",
"D. c #F5A5E8",
"F. c #EBB7E9",
"G. c #F7B6E9",
"H. c #E5A5F4",
"J. c #F3A2FD",
"K. c #F9A5F7",
"L. c #EEB9F4",
"P. c #FCB6FE",
"I. c #F4BBFA",
"U. c #F7B8F4",
"Y. c #A9C5DC",
"T. c #B5C8DD",
"R. c #BECBE2",
"E. c #D8CCDA",
"W. c #C1D1DE",
"Q. c #C0C8DE",
"!. c #F2C8CD",
"~. c #F0D2D6",
"^. c #CBC9E7",
"/. c #C6CAE3",
"(. c #CDD3E6",
"). c #CCDAEB",
"_. c #C8D6E6",
"`. c #D2D3E5",
"'. c #D5D6E9",
"]. c #D3DEEB",
"[. c #D9DDEC",
"{. c #DAD3EE",
"}. c #D5D3EF",
"|. c #E4CFEC",
" X c #E8C8E7",
".X c #F6CEE9",
"XX c #E7D7E9",
"oX c #F4D6E9",
"OX c #EDCCF4",
"+X c #EAC8F6",
"@X c #F3CBF4",
"#X c #FCC5FD",
"$X c #FCCCFD",
"%X c #F6C7F8",
"&X c #EBDAF5",
"*X c #EADCF7",
"=X c #FCD2F4",
"-X c #F2DCF4",
";X c #FADBF5",
":X c #FBD3FC",
">X c #FDDCFD",
",X c #F5D7FD",
"<X c #D4E2EB",
"1X c #DCE2ED",
"2X c #DDE5F0",
"3X c #DDF7FB",
"4X c #DEF5E8",
"5X c #ECE5EC",
"6X c #E5E7ED",
"7X c #F1E5ED",
"8X c #E9FDEB",
"9X c #E5E6F1",
"0X c #E5EAF3",
"qX c #EAEBF4",
"wX c #EBE7FB",
"eX c #FAEBF6",
"rX c #FCE2FB",
"tX c #F5EBFD",
"yX c #FCECFC",
"uX c #F3E7F6",
"iX c #ECF1F6",
"pX c #ECFAFB",
"aX c #E9F9F8",
"sX c #F4F3F4",
"dX c #FBF4F5",
"fX c #F5FBF2",
"gX c #F5F5FC",
"hX c #FBF4FD",
"jX c #F5FCFC",
"kX c #FBFCFD",
/* pixels */
"                                                                                                    ",
"                                                                                                    ",
"                                                                                                    ",
"                                                                                                    ",
"                                                                                                    ",
"                                                                                                    ",
"                            -.            0X_.  0XT.1X).H                                           ",
"                            9X                  ).Y.[.iX).    !.                                    ",
"                          ).`.'.        ) '.,.#.p.$.9.%Xp.&.<X  W.6X                                ",
"                          o.Z.#.'.    ^./ 2.C.>X&X*XS.>XF.tXhXo.qXW.                                ",
"                    }     2.kXV.'.  T.5.g.v..XkXrX Xk.x.v.j.c.c.o._.                                ",
"                  ) T.%.x.K.rX2.$.V.K.L.=XhXkX8XjXjXkXkXoX XrX7XL.s.;X-X5X    5X0X[.                ",
"                  -.3.d.F.K.m.f.m.>XaXsXE.[ L S S U <.XXeXgX8XgXhXpXhXP.#. .).    |                 ",
"                  _.#.P.8XP.n.7XfXi.Y c 5 + $ X < 1 + 4 A I uXjXsX7XkXdX@Xb.@._.1X0X<X              ",
"                  ].@.$X9XA.~.hX&XU = < # q c c h e 0 d 3 p 8.uXyX@X*XuXpX+Xc.O.iX1X                ",
"                  o.N.jXm.@XkX0.M , y C m h 8 8 7 4 x B B # a L uXuXP.x.J.>X;Xx.sX<X1X              ",
"            ..qX>.:.-XaXhXhXw.h 7 q c @ # O % % % % % # 8 s 9 + R XXfX&Xh.@.f.J.}.                  ",
"                {.a.:XpXhX X9 5 N 8 ; % % % % % % % % % % + b x ; Y sXhXk.^ &.:.                    ",
"                @.m.yXgXt.P > a p 7 $ # % % % % % % O % # ; r k 9 m [ eX@XX.XX                      ",
"                @.K.gX5XZ = 9 w + 2 % % % % % % % % % % % 7 + 1 s 2 6 =.tX0.+.2X                    ",
"        ..  ..qX@.j.uXoXn 9 x 7 $ * 1 % % % > % % % % % % ; $ $ 9 a 3 Y jX%Xc.:.0X6X                ",
"            1.A.j.J.kXy.* 2 k : 3 O 7 % % % % % % % % % > O % % q k O   sXG.K.a.9X!.                ",
"            {.:Xk.n.kX{ % u w O % % % % % % % % % % % % % O 3 % 5 e ; 5 |.uXrXk.0X0X,.              ",
"            } >X%Xn.hXS O x 7 % 2 % O % O % % % % % % % % % 2 % 1 e 4 4 r.kXjXU.o.%.%.!.            ",
"            G L.%XJ.fXt + m % % % 7 % % O % % % % % % % % % > % % v 4 1 { jXjX-X2.                  ",
"              y.:X+X8Xr # n % % % 2 % % % % % % % % % % % % % % > v y X { jXrXwXf.1X1X              ",
"              u.=XhXkXF : M O * $ % ; % % % % % O % % % % % $ % O j l # e.pXW @X%X+X]               ",
"              ;.H.$XhXT + c h + & O > % % % % % % % % % % % % * 7 u y w  XjX@Xl.rX:X*.              ",
"                2.K.fXe.% & v O 2 % % % % % % % % % % % % % % 2 8 a < b 5XiXkXQ tX:X}               ",
"                OXn.dXXXb o v 8 % % % % % # % % % % % % % % % % u z X R kX@XjX! ,XV.                ",
"              5X .$X-XeXN . l 9 @ , 5 % % > % % > % % % % 7 * % g t % w.eXU.&Xm.|./.O.              ",
"                  Q.k.;Xt.U % s u ; & % # O % # % # # % % @ 4 p 9 m w.-X*XyXrXG.Y.'.T.              ",
"                    B.U.kX@X< r M s o , % % # # # % % , & . m c 7 U yXtXh.rXjXG.) `.                ",
"                (.  ^ C.gXdXe.g o w x # O > > > 7 O % + 4 s f   L XXkX&X#X>X=XS.  _.                ",
"              -.M.u.h.2.m.$XhX[ C q w b g i 8 8 8 q a b b 7 a L  XrXA.k.kXyXh.4.                    ",
"              >.b.%XwXh.! x.OXkXXXI 1 y f f 9 f w w f 6 % s t.eXpXz.x.j.hXF.b./.Y.                  ",
"              _.a.z.>X XOXz.z.hXkXi.L V 6 . 1 y = 1 6 4 F ` ;XgXrXd.v.L.aXK.@.^.                    ",
"                ;.O.f.%XjXfX@X|.F.>XkXsXE.w.U A F { p.].dX2X=Xz.s./ Q qX;Xd.                        ",
"                  3.^.@.K.tX@XkXgXeXfXI.+XyXjX4X4XjX;X=X.XD.i.'.iXs.:X|.S.`.<X                      ",
"                  6X_.~ s.c.j.yXjXkXkXeXjXrXn.v.A.=Xq.rXG.q.Y.>.>.I.kXF.K qX|                       ",
"                            +.C.K.P.N.H.K.G.z.wXdXgXgXtXB.6.2XkXB.%XK.7.Y.                          ",
"                              '.+.X.^.B.m.S.P.#XI.7.5.5.$.(._.<Xa.P.M.+. .                          ",
"                                      #.K.f.k.S.:.[._ Y.        /.&.-.>.                            ",
"                                      R.  >./.jX(.        ).    |                                   ",
"                                      R.  [.T.R.  ].&.    R.iX} ).                                  ",
"                                                                                                    ",
"                                                                                                    ",
"                                                                                                    ",
"                                                                                                    ",
"                                                                                                    "
};
