/* XPM */
static char *_d02fbbfb2fc48f5c19039958da3968bo3lqIJnIwwvJ8Nz3[] = {
/* columns rows colors chars-per-pixel */
"50 50 149 2 ",
"   c #BDA079",
".  c #C3A67E",
"X  c #BEA580",
"o  c #C4A683",
"O  c #C5AB85",
"+  c #CAAD86",
"@  c #C6A788",
"#  c #C6AD8A",
"$  c #CBAE8A",
"%  c #CFB085",
"&  c #C7B08A",
"*  c #CDB28B",
"=  c #CFB88F",
"-  c #D1B48E",
";  c #D2B88F",
":  c #D9BA8D",
">  c #CEB491",
",  c #CFB892",
"<  c #D3B691",
"1  c #D5BA93",
"2  c #DABC95",
"3  c #D6BC99",
"4  c #DCBE99",
"5  c #DAC097",
"6  c #DDC29B",
"7  c #E4C39F",
"8  c #E1C49D",
"9  c #E3C49D",
"0  c #E2C59D",
"q  c #E2C69D",
"w  c #E3C69D",
"e  c #E2C49E",
"r  c #E2C59E",
"t  c #E3C59E",
"y  c #E2C49F",
"u  c #E3C49F",
"i  c #E3C59F",
"p  c #E0C79F",
"a  c #E1C79F",
"s  c #E3C69F",
"d  c #E4C49E",
"f  c #E2C49D",
"g  c #E2C89F",
"h  c #E5C89F",
"j  c #E2C89F",
"k  c #DEC4A0",
"l  c #E3C6A0",
"z  c #E4C6A0",
"x  c #E5C7A1",
"c  c #E7C7A1",
"v  c #E6C5A2",
"b  c #E6C7A2",
"n  c #E4C7A1",
"m  c #E1C8A0",
"M  c #E3C8A3",
"N  c #E3CAA2",
"B  c #E7C8A1",
"V  c #E6C9A1",
"C  c #E6CAA1",
"Z  c #E7CAA1",
"A  c #E5C8A2",
"S  c #E6C8A2",
"D  c #E7C9A3",
"F  c #E4CAA2",
"G  c #E5CBA3",
"H  c #E7CAA2",
"J  c #E6CAA3",
"K  c #E4C8A0",
"L  c #E7CDA3",
"P  c #E3C9A4",
"I  c #E5C9A6",
"U  c #E5CCA4",
"Y  c #E6CCA4",
"T  c #E6CDA5",
"R  c #E7CDA5",
"E  c #E7CDA6",
"W  c #E6CEA6",
"Q  c #E7CEA6",
"!  c #E5CAA2",
"~  c #E8C8A2",
"^  c #E8C9A3",
"/  c #E8CBA3",
"(  c #E8CAA4",
")  c #E9CBA4",
"_  c #E8CBA5",
"`  c #E9CBA5",
"'  c #EACAA4",
"]  c #EBCBA5",
"[  c #EACCA5",
"{  c #EACDA5",
"}  c #E8CDA6",
"|  c #E9CCA7",
" . c #EACCA6",
".. c #EBCDA7",
"X. c #E8CEA6",
"o. c #E8CFA6",
"O. c #E9CEA7",
"+. c #ECCCA6",
"@. c #ECCDA7",
"#. c #EDCEA7",
"$. c #ECCFA7",
"%. c #EACCA5",
"&. c #ECCEA8",
"*. c #ECCFA8",
"=. c #EDCFA8",
"-. c #EDCFA9",
";. c #EECFAA",
":. c #EFCFAB",
">. c #EDCEA8",
",. c #F0CFAA",
"<. c #E9D0A7",
"1. c #ECD0A7",
"2. c #E9D0A8",
"3. c #E9D0A9",
"4. c #EBD2AA",
"5. c #EDD0A8",
"6. c #EDD0A9",
"7. c #EED1A9",
"8. c #EDD0AA",
"9. c #EED0AA",
"0. c #EFD0AA",
"q. c #EED1AA",
"w. c #EFD1AB",
"e. c #EDD4AC",
"r. c #EDD5AD",
"t. c #EED5AD",
"y. c #EFD6AE",
"u. c #EDD1A9",
"i. c #F0D2AB",
"p. c #F0D0AA",
"a. c #F0D1AC",
"s. c #F0D2AC",
"d. c #F1D2AC",
"f. c #F0D3AD",
"g. c #F1D3AD",
"h. c #F3D2AE",
"j. c #F3D2AF",
"k. c #F2D2AC",
"l. c #F5D3AE",
"z. c #F2D4AE",
"x. c #F0D6AE",
"c. c #F0D7AF",
"v. c #F3D6AE",
"b. c #F1D3AC",
"n. c #F4D3B1",
"m. c #F0D7B0",
"M. c #F4D4B1",
"N. c #F6D5B0",
"B. c #F1D8B0",
/* pixels */
"2 6 9 4 4 5 5 1 1 1 1 6 6 6 6 2 , 6 6 N Z ~ 0.v.v.0.;.,.;. .d 7 x Z 4.m.c.c.c.r.U N 6 5 1 1 5 5 5 5 ",
" .;.0.0.0.0.&.W ~ 9 6 6 U 4.{ W W M N C 9 4 2 5 4 6 8 4 4 2 2 1 < < < 1 , < 5 6 c.c.r.W <.N W W W W ",
"x 7 9 d x ,.M.M.l.p.+.+.4.5.5.v.;.D 9 5 : < - : - - - - : 1 2 < 1 ; < * = & * * 5 k W 4.r.<.W M W { ",
"- $ - $ + * * 4 x 7 7 2 + O % : - : - ; < < 1 4 4 4 4 4 7 9 7 7 6 6 6 4 2 1 = = & * * = 1 < ; < < 1 ",
": 1 2 2 1 ; & O O + + + 2 2 - - - - - 4 8 d  .+.;.;.;.;.;.w.w.w.:.:.| | W D W D L 5 ; ; * < * * < < ",
"6 d d Z Z / q 1 < ; ; : < < - - < 1 7 c +.+.+.c ~ $.x 4 < : 2 v n.n.f.f.w.{ D 7 9 j 6 4 < 2 2 2 1 1 ",
"p.;.;. . .+.i.1.' 7 7 2 < - < 2 7 x x 7 4 - - % $ + + $ < 4 2 4 4 4 < 2 ; - - - 4 6 Z x 7 x Z x M M ",
"l 1 - $ $ : c k.,.,.+.+.+.7 x c 7 1 - - ; - < ; - : 2 6 9 9 4 2 < - - $ $ $ - 1 6 6 D ;.;.0.f.f.r.r.",
"@ $ $ $ $ > > 3 I &.k x D D l 2 < + - * 1 6 6 7 l x c 7 2 1 1 1 > < * < 2 2 6 7 M Z Z C Z 6 6 j M 6 ",
"< - - < * & # O @ X + $ $ : < 4 8 8 8 6 6 D E  .x 4 4 2 < 2 5 5 6 6 6 x Z ~ { Z l 4 < > > < < > > ; ",
"4 4 4 4 1 * # # O O + $ 2 4 x +.+.k.0.;.4.7 < - < 2 1 4 6 9 Z C { 0.{ 0.{ h 5 5 < 1 , * > , , = > > ",
"$.~ x  .W k 6 1 * * < 4 6 7 7 4 6 h 7 4 ; $ + - < 2 7 x { { <.0.0.$.Z 5 4 < < 1 , 1 1 < , > < < 1 1 ",
"5.5.p.f.v.v.w.0.Z M 7 2 - + O # + $ $ $ % < 2 v x x Z Z 9 4 3 3 1 4 4 1 ; 2 5 6 6 6 5 6 q q h C x  .",
"* : 1 < ; 2 Z p.0.{ d 2 < - < < $ * $ < 2 8 x x 4 4 < < < < < < > < - : 5 q h / <.<.W 4.4.4.e.7.$.p.",
"O O O O O @ $ 1 6 8 6 8 x c ~ x k 9 4 6 8 6 4 1 > < < > > * < < < < : 4 9 ~ / 4.<.5.4.<.<.<.<.L 8 2 ",
"* * # O O @ @ o o $ - 2 6 7  . .f.f.;.x ; - : < > > > > 1 2 3 4 k 6 D  .Z d 6 5 : 2 ; ; * & * * - : ",
"4 4 < : $ $ + O + % % - $ + + $ ; 1 1 - 1 4 4 6 6 4 6 M M W W <.4.4.{ 9 6 1 < > > < > > * * * * : < ",
"$.~ x h 8 4 4 2 2 2 < - - - - @ $ % - < 6 Z ~ { <.e.<.4.4.4.C 6 6 6 4 4 2 2 1 , , > > > > 1 , 1 2 4 ",
"p.l.l.p.+. . .~ h h d 9 2 < < : < 2 4 7 k 6 6 2 4 5 M j 5 5 * * < < 1 4 4 7 6 6 k 6 6 3 2 6 6 7 l ' ",
": 5 $.p.p.0.8 x 2 2 9 ' ' c 7 v c x x 4 1 > $ * + $ $ & * &   1 < 4 7 Z  .D { <.4.0.{ M x  .{ +.l 4 ",
"% + + + - - + $ - : : < 4 $.;. . .2 < < 1 1 , & $ @ $ $ < 1 - 4 8 7 ~ {  .x d h t.v.v.p. .d 2 < < - ",
"% % O o $ @ + : 2 2 4 1 > $ + + $ $ < 2 6 P 6 6 4 4 2 4 7 x x x x x Z 7 < ; % + * 1 6 4 1 < < : < - ",
"* $ O $ * * : 4 6 l l 4 3 $ + $ < 1 4 6 M W 4.4.$.$.$.{  .x 7 1 - + - < 2 < ; * % + + + + - - < 1 2 ",
"1 3 3 < < 2 6 4 6 6 k k 4 < - - : 4 7 x 5 2 6 <.p.$.d 4 2 : ; $ + + - 4 7 d M 9 6 ; % * - $ - 2 7 x ",
"{  .7 6 7 d 6 2 4 q ~ { w.&.x 4 2 1 1 > $ # & > - $ % - < < < , < 1 1 6 ~ 5.t.t.4.M 5 4 4 4 8 7 x j ",
"f.,.+.' ' 6 : : 6 7 9  .f.M.f.c 6 4 < * $ & $ O + + + $ < 4 6 M W { h 6 ; : 6 6 N t.t.{ h Z 9 6 6 1 ",
": 7 7 4 - - % < 2 : * - * < 2 - < 4 6 M 6 2 = * : - 1 4 6 6 N W j 6 2 ; ; + + + * 1 W 4.h 5 : - < > ",
"$ + + + % - < < 2 < < * - + + + - : 6 <.3.W W <.D x ' x W 1 < = * - ; : - - ; * + + + * * : ; : 1 1 ",
"- % - : < 2 4 4 4 6 7 9 6 1 > * $ $ $ * : 9 N 9 l 7 4 > * * * * * < 1 4 4 8 9 6 5 = & % + * - - < 1 ",
"< 2 2 4 6 7 h h l Z { f.p.W 6 5 1 1 1 $ + o + + * > > & * < , = < 2 q h ' $.$.,.<.L q 1 ; 1 2 2 l 6 ",
"7 d c c 7 7 < < 6 Z W W  .Z <.4.6 6 D l 4 < * & * , , 5 1 6 M 6 l x Z d d d 6 c x $.i.0.C Z x x D | ",
"d q 6 6 % + + - * 2 < 1 1 * ; ; = 6 6 D D ;.Z 6 3 6 6 6 6 Z { 5.+.l 2 * O + $ - < 1 6 { 0.Z 7 4 2 1 ",
"8 5 : $ % $ $ + $ - = = = & * & & * * & * 1 j e.<./ 5./ Z 7 4 2 < 2 3 < & O X + $ * ; - - * + + + + ",
"2 5 j 9 4 6 < - * ; , * & & & & + & * & + & + * 5 $.9 5 ; > $ $ * - 1 k 6 5 > & $ * * - - % - - - - ",
"* 1 5 W 4.+.x 4 ; * > & X # + * , 5 1 * - 1 < * o . % % * * > * & * > 2 6 N k 6 3 * , 1 4 5 2 2 4 1 ",
", = * = 6 $.v.0.x 2 > * * * = 1 6 6 k 6 6 N N N 4 ; : ; 1 , 5 5 6 5 2 ; ; 6 6 N M 6 6 M / / h h x x ",
"* = * + O + * 2 d ~ h 9 6 6 6 6 k k M <.W 6 5 j q 8 q 4 5 q j j W M Z x 9 9 M N <.4.N N ~ 5.5.h  . .",
"5 2 ; & O O + - 8 $.5.$.<.C C k 4 1 * * * & + & - 1 q ~ C h L 6 6 6 9 Z { 7 2 2 5 N 6 6 2 ; : % $ $ ",
"{ C h 6 ; ; - ; 2 8 ~ 5. .Z 6 1 < < & & & & * , : 1 2 2 4 1 ; = * * * , < * $ * = * , 5 , = * & $ O ",
"{ e.v.0.<.h q 2 - + @ - * $ * * * ; : = & 5 6 6 6 9 8 2 - * * * & & O   O < 1 2 = * * = 1 5 6 6 4 4 ",
"4 7 v | ' ' l 7 < $ @ + $ $ - < 1 4 6 6 6 l l 6 4 4 4 4 1 = = 5 , 6 1 1 1 3 5 2 , = * * * 2 6 <.$.$.",
"$ > < < 3 2 3 4 6 2 < ; 3 4 4 7 7 Z  .Z D x 2 - % % * : 5 6 6 6 6 6 N <.9 2 1 1 5 6 1 4 2 1 < 2 4 4 ",
"@ @ @ $ $ - < 1 6 c c d 9 9 7 8 2 : - % - + + + & % % ; 1 5 6 j 6 6 5 5 1 : ; < 5 W <.Z 9 2 ; * $ % ",
"4 4 < < < $ < $ < 7  .~ 9 < - + & % % - * - - ; : 1 5 6 j 6 5 ; & = ; 1 2 2 4 1 = < 4 1 1 ; ; & + $ ",
"v k k 4 4 1 1 < % + + * % % - * ; 2 9 9 8 6 9 9 9 9 Z h 5 5 5 5 5 5 6 6 9 9 Z 9 2 ; * * ; 5 5 5 3 2 ",
"< 7 7 4 6 7 l 7 7 6 2 1 2 4 8 5 5 4 1 4 9 { W Z M 6 2 1 * * * ; 5 6 L N 9 8 9 { +.Z 6 6 6 6 N <.D v ",
"7 9 7 v x Z Z Z ~ { ~ Z j Z ~ h 9 6 < : * - 2 : - % % * - ; - - & % * * % - * < 4 x W W N k 6 6 I l ",
"Z D D v 6 : ; - * ; < 2 1 < : 2 6 6 Z j 6 2 * % + - - 1 : 2 5 : 5 : ; - * $ $ * - < 1 5 1 = * = > > ",
"7 1 < > $ $ < 1 < ; 1 1 $ $ & * * * ; 2 6 k 6 q 6 5 5 6 q 9 h ] q 5 6 5 ; ; = = , > & # & # # @ # > ",
"< < > < < 3 6 k M M Z D l 7 4 1 ; & & & & < 9 C C C h h h ' ] h h h <.h j 6 5 5 , , > # & > > > > > "
};
