/* XPM */
static char *e322df2195f247acd49d9baef9bb4abdJX5dl99qjWzyda7H[] = {
/* columns rows colors chars-per-pixel */
"50 50 8 1 ",
"  c black",
". c red",
"X c #00D800",
"o c #F89000",
"O c #607080",
"+ c #C028D0",
"@ c #F8F8F8",
"# c white",
/* pixels */
"                                                  ",
"                                                  ",
"  @+                            +   +             ",
"   @+                        +  X   +             ",
"   @+                +        @XX   +             ",
"    @+            +  X        @X    +             ",
"    @+             @XX        XX    +             ",
"    @++            @X         X     +             ",
"     @++           XX         X     +             ",
"     @+                             +             ",
"       XX         @@@@               +            ",
"      @XX          @++@@+            +            ",
"      @X +   @@+++  @++++++          +            ",
"        ++ +@@@@+++ @+++++           +            ",
"       @++ +@@@@+++ ++++    @        +            ",
"        + +@@@@+++++++  O  @         +            ",
"         +@@@++++++++ OOOO  + XXXXX  +            ",
"        +@++ ++              X        +           ",
"        @++++    @  +++   XX          +@@         ",
"        @+++  @@@  ++++ XXXX    ++++++            ",
"        ++@  @O     +++ XXXX   +++   ++           ",
"       +  @ @     ++++    XXXX ++  X  +           ",
"      @+++   + ++++++      XXX ++ X   +  XX       ",
"     @+   ++++++       ++  XX  ++     + + XX      ",
"        OO        XX      XX    +    +++++ XX   ++",
"   @++  OO  OO          + XX     ++ ++++++     +  ",
"      +   ##       o  o         ++++  +++ XXX  +  ",
"   @+  + #####     oo o o     +++  +     X   +++  ",
"  @            O O  o o  ++++ ++    ++     ++++   ",
"    + @++ OO   O O   o  ++   +     +++ +  +       ",
"   +    + OO OO OO     ++ OOO    +++  ++     @    ",
"    @ + @ O OOOOO  ++  + O @  ++ ++  ++ + ## @    ",
"     +   @ OOOO   @  +  @OO + +++      +  ### @   ",
"     +      OO OO +  + @O @ @+     +       ## @   ",
"          X OO    +  O @OOO @++   @@ ++ +++ # @   ",
"          X O      +    @   +  @ ++ @+ +   ### @  ",
"          XX        +    +++  @@   +@ +     ## @  ",
"          XX                ++    +  +      ## @  ",
"                         @@++++     +   +++  # +  ",
"                   OO   @+++++    @++ +@+++  # +  ",
"                        ++++     @ + +@+++   # +  ",
"                        +++      @ + +@+++  # +   ",
"                                     +++++    +   ",
"                          X ++       +  +   +     ",
"                         XXX +          +   + +   ",
"                     @@++         OOO     XX ++   ",
"                    @++++++ +++          @   ++   ",
"                                        @+++++    ",
"                                                  ",
"                                                  "
};
