/* XPM */
static char *result[] = {
/* columns rows colors chars-per-pixel */
"50 50 114 2 ",
"   c black",
".  c #4E2D32",
"X  c #55373D",
"o  c #782928",
"O  c #673C3C",
"+  c #7B3434",
"@  c #743739",
"#  c #753C3B",
"$  c #3F3C49",
"%  c #2B4042",
"&  c #374246",
"*  c #384347",
"=  c #3D4B4F",
"-  c #3F4D52",
";  c #3F5153",
":  c #3F5358",
">  c #434B4D",
",  c #574445",
"<  c #424250",
"1  c #434E52",
"2  c #455256",
"3  c #4A5356",
"4  c #445459",
"5  c #49555A",
"6  c #47595E",
"7  c #4C595D",
"8  c #535453",
"9  c #595758",
"0  c #5D5B5B",
"q  c #604B4D",
"w  c #7D4142",
"e  c #7C4749",
"r  c #625D5D",
"t  c #4E5C61",
"y  c #515C61",
"u  c #4E6164",
"i  c #546165",
"p  c #596366",
"a  c #55656A",
"s  c #5C6669",
"d  c #5D696B",
"f  c #576A70",
"g  c #5D6C73",
"h  c #646363",
"j  c #686565",
"k  c #64656A",
"l  c #646A6B",
"z  c #6B6C6C",
"x  c #706163",
"c  c #706E6E",
"v  c #656E71",
"b  c #697273",
"n  c #64747B",
"m  c #69767B",
"M  c #6C787B",
"N  c #737373",
"B  c #7D7475",
"V  c #747A7B",
"C  c #7A7B7B",
"Z  c #823030",
"A  c #883534",
"S  c #806767",
"D  c #826E6E",
"F  c #966E6E",
"G  c #667D84",
"H  c #6B7B82",
"J  c #737E80",
"K  c #797F80",
"L  c #738285",
"P  c #7F8484",
"I  c #75868D",
"U  c #7F8B8C",
"Y  c #848484",
"T  c #898787",
"R  c #848788",
"E  c #858D8D",
"W  c #8C8B8B",
"Q  c #908385",
"!  c #838E92",
"~  c #879397",
"^  c #8A9394",
"/  c #8C969A",
"(  c #949393",
")  c #989494",
"_  c #929A9D",
"`  c #9C9B9B",
"'  c #949EA2",
"]  c #97A0A3",
"[  c #9CA2A3",
"{  c #9FA8AC",
"}  c #A4A3A3",
"|  c #A1A7A8",
" . c gray67",
".. c #A5AFB3",
"X. c #A7B0B4",
"o. c #ABB1B4",
"O. c #AEB5BA",
"+. c #B3B4B5",
"@. c #B9B6B6",
"#. c #B3BABE",
"$. c #BBBBBB",
"%. c #C0BEBE",
"&. c #BFC0C0",
"*. c #C3C4C4",
"=. c #C8C6C6",
"-. c #CACACB",
";. c #CDD2D3",
":. c #D4D3D3",
">. c #D8D6D6",
",. c #DDDBDB",
"<. c #E0DFDE",
"1. c #E5E5E5",
"2. c #EFECEC",
"3. c white",
/* pixels */
"                                                                                                    ",
"                                                                                                    ",
"                                                                                                    ",
"                                                                                                    ",
"                                                                                                    ",
"                                                                                                    ",
"                                                                                                    ",
"                      M _                                                                           ",
"                        U o.^ 4                                                                     ",
"                            +.&.[ 4                                                                 ",
"                              6 | &.^ i                                                             ",
"                                  a $.%.E ^ 4   5 K s                                               ",
"                                      b @.} +. .W ` } v                                             ",
"                                        a ^ =.( P R W ` b                                           ",
"                                          =.( C r c B W ` p                                         ",
"                                        6 >.R W ) B z h j R L                                       ",
"                                        ;.*.V C C ( W V T W ` u                                     ",
"                                    L -.1.=.S O x v Y D T ` p 5 1   1                               ",
"                                U ;.3.,.=.E B F + # r # , Y l = > 9 r =                             ",
"                              1.2.<.1.$. .` W m x e Z w r 0 N % 3 8 > 2                             ",
"                              :.:.@.+.} ` W y p G G x m ; 9 j s h >   1 1                           ",
"                              u _ [ Y N l     4 a g a n     0 0 8                                   ",
"                                ; N j         < q 6 y       8 9                                     ",
"                              5 } T 3         $ A @                                                 ",
"                        d b C T D l           . o X H H v                                           ",
"                      b W ( j h         a / ! Q # k ' #.#.L                                         ",
"                    3 ` z 5           _ O...] M I y = s v o.!                                       ",
"                      5             g O.{ ' y t G n 5 * & p ' U                                     ",
"                                  { ..{ _ y 7 n y 2 t y t < & V ~                                   ",
"                                I #.{ / 7 a v     1 1 5 7 7 6 & J '                                 ",
"                                X.{ ~ 7 a n t         1 1 5 7 5 s L                                 ",
"                              / o.^ 7 a n 4               1 2 7 1                                   ",
"                              L V 5 t n 2                         t y                               ",
"                                2 t                                                                 ",
"                            f a 2 4                                 1 5 2                           ",
"                          g n g t                                   1 2 7                           ",
"                        f H g :                                         1 y                         ",
"                        n t                                               5 -                       ",
"                      1 2                                                   1                       ",
"                  : H g                                                       >                     ",
"                  n n i                                                       6 7                   ",
"                6 n n                                                         5 5 y                 ",
"                                                                                                    ",
"                                                                                                    ",
"                                                                                                    ",
"                                                                                                    ",
"                                                                                                    ",
"                                                                                                    ",
"                                                                                                    ",
"                                                                                                    "
};
