/* XPM */
static char *_b38dfc9606647aca81071baaf65fc2cFq2XfyTY380XoIHD[] = {
/* columns rows colors chars-per-pixel */
"50 50 197 2 ",
"   c #2E2F29",
".  c #2F302A",
"X  c #30312B",
"o  c #32332B",
"O  c #31322C",
"+  c #32332D",
"@  c #33342D",
"#  c #33342E",
"$  c #34352D",
"%  c #34352F",
"&  c #35362E",
"*  c #36372F",
"=  c #343530",
"-  c #353630",
";  c #363730",
":  c #363731",
">  c #373830",
",  c #373831",
"<  c #373832",
"1  c #383931",
"2  c #383932",
"3  c #383933",
"4  c #393A32",
"5  c #393A33",
"6  c #3A3B33",
"7  c #393934",
"8  c #393A34",
"9  c #3A3B34",
"0  c #3A3B35",
"q  c #3B3C34",
"w  c #3B3C35",
"e  c #3B3C36",
"r  c #3C3C35",
"t  c #3C3D35",
"y  c #3C3D36",
"u  c #3C3D37",
"i  c #3D3E36",
"p  c #3D3E37",
"a  c #3E3F37",
"s  c #3D3E38",
"d  c #3E3F38",
"f  c #3E3F39",
"g  c #3F4038",
"h  c #3F4039",
"j  c #3F403A",
"k  c #404139",
"l  c #40413A",
"z  c #41423A",
"x  c #41423B",
"c  c #42433B",
"v  c #42433C",
"b  c #41423E",
"n  c #43443C",
"m  c #43443D",
"M  c #43443E",
"N  c #44453D",
"B  c #44453E",
"V  c #45463E",
"C  c #45463F",
"Z  c #46473F",
"A  c #454640",
"S  c #464740",
"D  c #474840",
"F  c #474841",
"G  c #484841",
"H  c #484941",
"J  c #494942",
"K  c #494A42",
"L  c #494A43",
"P  c #4A4A43",
"I  c #4A4B43",
"U  c #4A4B44",
"Y  c #4B4C44",
"T  c #4B4C45",
"R  c #4C4D45",
"E  c #4C4D46",
"W  c #4D4E46",
"Q  c #4D4E47",
"!  c #4E4F47",
"~  c #4E4F48",
"^  c #4E4F4A",
"/  c #4F5048",
"(  c #4F5049",
")  c #505149",
"_  c #50514A",
"`  c #51524A",
"'  c #51524B",
"]  c #52534B",
"[  c #53544C",
"{  c #54554D",
"}  c #54544F",
"|  c #55564E",
" . c #555550",
".. c #60615D",
"X. c #686965",
"o. c #696965",
"O. c #696966",
"+. c #696A66",
"@. c #696A67",
"#. c #6A6B66",
"$. c #6A6B67",
"%. c #6B6B67",
"&. c #6B6C67",
"*. c #6A6B68",
"=. c #6B6C68",
"-. c #6B6C69",
";. c #6C6C68",
":. c #6C6C69",
">. c #6C6D69",
",. c #6D6D69",
"<. c #6D6D6A",
"1. c #6E6F6A",
"2. c #6E6E6B",
"3. c #6F6F6B",
"4. c #6F706C",
"5. c #71716C",
"6. c #70706D",
"7. c #71726D",
"8. c #72736D",
"9. c #71726E",
"0. c #72726E",
"q. c #72736E",
"w. c #73736E",
"e. c #72736F",
"r. c #73736F",
"t. c #73746E",
"y. c #73746F",
"u. c #74756E",
"i. c #74756F",
"p. c #747470",
"a. c #747570",
"s. c #757570",
"d. c #747571",
"f. c #757571",
"g. c #757670",
"h. c #757672",
"j. c #767772",
"k. c #787874",
"l. c #797A75",
"z. c #888884",
"x. c #8F908B",
"c. c #92938E",
"v. c #B5B6B1",
"b. c #BFC0BB",
"n. c #C0C1BB",
"m. c #C0C1BC",
"M. c #C1C2BD",
"N. c #C1C2BE",
"B. c #C2C3BE",
"V. c #C3C4BE",
"C. c #C3C4BF",
"Z. c #C4C5BF",
"A. c #C2C2C0",
"S. c #C3C3C1",
"D. c #C3C3C2",
"F. c #C3C4C0",
"G. c #C4C4C0",
"H. c #C4C5C0",
"J. c #C4C4C1",
"K. c #C4C5C1",
"L. c #C5C5C1",
"P. c #C5C6C0",
"I. c #C5C6C1",
"U. c #C4C4C2",
"Y. c #C5C5C2",
"T. c #C5C5C3",
"R. c #C6C6C2",
"E. c #C6C7C2",
"W. c #C6C6C3",
"Q. c #C6C7C3",
"!. c #C7C7C3",
"~. c #C6C6C4",
"^. c #C7C7C5",
"/. c #C7C8C3",
"(. c #C7C8C4",
"). c #C7C8C5",
"_. c #C8C9C3",
"`. c #C8C8C4",
"'. c #C8C9C4",
"]. c #C9C9C4",
"[. c #C8C8C5",
"{. c #C8C9C5",
"}. c #C9C9C5",
"|. c #C9CAC4",
" X c #C9CAC5",
".X c #C8C8C6",
"XX c #C8C9C6",
"oX c #C9C9C6",
"OX c #C9C9C7",
"+X c #C9CAC6",
"@X c #CACBC6",
"#X c #CBCBC7",
"$X c #CBCCC6",
"%X c #CBCCC7",
"&X c #CACAC8",
"*X c #CDCEC9",
"=X c #CFD0CB",
/* pixels */
"Y.Y.S.Y.D.U.OXS.Y.Y.V.OX$X_./.Y.Y.F.V.V./.).OX)./.b.F./.F.T.T.F.OXD.D.Y.Y.).D.D.^.OXT.&XT.Y.S.S.T.OX",
"g.g.0.g.g.p.g.0.p.g.t.t.i.i.i.0.t.0.p.1.0.t.t.t.5.0.t.t.0.t.0.p.g.r.0.0.g.i.g.0.0.g.g.l.k.g.p.3.0.j.",
"N K N D Y N R b N N D D Z N N Z K c I Z D n D n c n n n c D n A Z N n N j n N n N K K N N N K D n N ",
"R R R K R N K K n N K Y K n Z I D n K D N D D N n N Z D D n Y A R A N N n N Y D N N K N N K N N D I ",
"` Y Y K R N R D D Y R R D K / ` D Y / D D n D N D Y D N Y D / n K K N N K R R D D A K Z K N Z I I I ",
"Y K R Y Y n ` K R R ` K K ~ ` R Y ! [ D Y K D N K / Y I D K / N Y ` R R R ` ` N K I R K K D R K D I ",
"D R ` U K K ` R Y K Y Y K / R N D Y / D R Y R K I Y Y / D n R R R ` ` ` ` R K Y K R I K n I R K K K ",
"R { ` a D R K Y K N K Y R R Y K D R / n Y Y / / Y Y Y Y I j / R ` N R / R R R R N R Z K c K R ` I Z ",
"K K K N N R K N K ` Y D D K Y R R R Y ! Y Y D n Y / / ` ` Z / / ` K K N K R R R N ` K N N K ` R D Z ",
"K R R Y R ` R ` K R N c D R R ` / Y ! ! Y I D Z K ` [ { R D n N R R R K c K R ` ` N K ` R K R R R R ",
"R R Y R R ` { R K K R / R R Y Y g K / Y D Y N N K R ! / Y D D D N a c N K K N K / { N c R R R K n I ",
"K R ` R N c N K K Y Y N K / R ` j ` / | n ` R D I Y I R D D Y I { K R ` ` / R R R R K R ` K R R ` ` ",
"R R D Y D D Y D D K Y [ / D R R n R | ` ! ] { ] Y K I I Y K Z D K K R R K ` R N K R K K K N Y R / ` ",
"K R K K Y R / c Y R R R K Y ` R I I I ` Y R / / Y Z D R Y D I I R ` R Y Y R R R N R { K R N K ` ! R ",
"K K K K N D R / R R R R Y K / K N ! R ! D ! I Y ` / ! Y K D R ` R R R K K R R R K K ` N N c K R K K ",
"K K R K D D K Y Y K / R K Y Y N I ! Z I D R D I / ! Y D D I R Z K N N K K N Y R K N K N D N K K I I ",
"R R K R Y R Z Y N N R ` ` R R K D K Z I I ! K Y R I K n Y ! g n R I K R ! R R ` N N R R R K K D K K ",
"R R N Y Y / I K N A K ` / I R R K Z Z Y ! R Z I K Z Z N R R y Z ` R Y R R ` R ` R K K ` R N K K K K ",
"Y K Z Y Y ! K N K R K K N K Y K K K n K ! K D N n c Z K Z R Z Z R Z R I R R R R R K N N R N K R Y Y ",
"Z N N I Y Y Z I N K K N c N R A N D n n K Z I n c j n Z Z I Z g N Z K K K N K Z K R N c ` N N K D K ",
"N N N N N 5 K Z c N c N c a a 8 n n Z j n n g c Z N n Z n 5 n * a c c N N c a a N c k t c N c N A n ",
"k t a N k X 5 t 5 k N N c 8 a d g c c y a g a a n N j a g * 4 4 a N 8 a N c a c c a a t t N N 8 y c ",
"d 5 & k 8 a 8 & 8 a a a d a ; 5 a % g Z < < g j * % * g 5 a g 4 d a c 8 a 8 8 j 5 5 5 5 t 5 c a y 5 ",
"a 5 & 5 ; d a d 5 d ; ; 8 8 8 < < y y 8 < 5 y < < < < < X 4 * X   + & ; + + 3 8 5 + 5 < & 5 ; a a 5 ",
"  z.OXOX*XOXOXOXOXT.%Xx.& + + + + + 8 ; % v.).OX)./.)._.OX/.=Xa +   ; < = = ; *.T.).OX).OX$X/.OXc.; ",
"; ~ *.*.0.+.1.1.&.1.5.} ; ; ; & + + ; ; < ..=.+.+.X.#.#.X.X.=.% ; a ; < ; ; + b +.+.+.+.#.#.#.=. .% ",
"< ; < 8 a @ ; < a * < < 8 8 5 < 3 8 < 5 < < 5 y < & < 5 8 & X y < 8 ; & = ; ; = ; = % < 5 % < y ; % ",
"d d 8 d a < ; d t 5 a y 8 5 a 5 8 8 < y d ; * a y 5 * < d * < < & d d < 8 u 8 8 8 8 5 a 4 5 ; y 8 8 ",
"c a a c h c < g c a a a g 4 a a j a a g g a 5 4 4 a g 4 c y a 4 * g a a a b n c a g c j g a 5 g y 8 ",
"h a c c c N 5 a n n c c n a a c D j c c n n g t g c n n n j n c n n a g c n K n a a K n j a g n n a ",
"g a N N N K N c N I Z Z N c g N Z g N n K N n N N N N Z N n K Z I K N N N N n c c c K c n g N K K D ",
"N N N K R ` R N Z ! K Z Z n N K K n I Z Z Z Z I I K Z I N I I R K K R I K K c c K K K N D Z D Y / R ",
"R Y K K ` R N R R K K K N K R R R I R R I I ! R R Z Z R I ] K ` I K Y R ` Y N n R I K ! I I R R / Y ",
"R K N R R N K K R K K N K R R R I K I ] ` Y / ! Y Y I I R Z R { N R { R K R R n N Z ! R ` ! R R K K ",
"Y R R Y N G R K N ` R K N N K G ! K R ` ! K K R ` ! K I ` Z ] ! I ` ` ! I ! { R I K ` K ! n K N N K ",
"K K Y N R ` / c R R R R R N N K ! K N Y Z I N I R N a n Z N ` N R I R ! I K R I ! K R ` ! ] R Y R Y ",
"R R N K N ` R R ` R R R R R K N ` N ] N c I R R R K Z R R I K ` ` ` ` ` R I R R I g K R N N K ! / Y ",
"Y K R R K / K K N N K N K R R R I N ` Z K ` Y Z K K Z N ` I I R ` / R D K ! ] { ] R c ` N ! R R Y R ",
"` ` R ` R G R Y K c N D N N R ` I Y ] I ! I K K N Z Y K I K R R D R K K I / ` ! N K K K R R R K D D ",
"R R Y Y K ` ` K N K Y R Y K K R R I I R ` N n N N I ` ! K Z I Y R K Z Z I R K Z D K R R ` K K Z D K ",
"R R R ` K R ` K K Y U R K N K R K ! Z ` ! K Z K Z K ! / R N I R R D I K K I Z K K n ! I ` I I K K R ",
"R R R R R R ` N D R R K K K A K K ! Z ! Y ! I K Y I Z Y Z N K { K K R / / / R ! K n ! K R R K K K Y ",
"N N I R R R ` N R R R R Y Y K N I N K I K ! Y I ! Y Z Z N Y I { I I R ` ` R ! ! I K ! K ` I K K D K ",
"K K ! R I K ` K { R ` R K K K K Y c Y K K ! / R I Y R Y I R R I Y ! R R K N Z I R R R Z ` K R R Y Y ",
"~ ` ` N R N K ` R { ] K K K K K ! Z ! N K / ` Y K R / R ! Y Y Z N I K Y K N Z R K K K R ! K R R R / ",
"N R ! K R N R K / ` ` Y Z K R ` / R Y I R Z / ` ` ! Z Z Y Y ! I K D D ` ! I ! ! K Z D R ` K K K Y / ",
"K N N N ` N Z R R R R K K K K K K N R ] Z K K I R ] { K Y N c K K K R ! Y K K I D K I I I ! K K Y Y ",
"N I Z / R N ` N N K K c c N N N Z Z k Z c K Z K Z N Z Y n K g Z N a N Z n n K Y K N c R K ` Z a a N ",
"R N c c c N N a o a g c c c a 5 N Z D N / K K A j j K ` n c N n g n b K Z Z I K N Y Z c j c n n c d ",
"Z.Z.B.B.Y.n.B.n.B.B.B.b.B.n.b.b.B.n.Y.V.V.B.B.B.b.B.Z.B.Z.Y.n.Y.V.B.B.V.Z././.V.V.B.V.b.Y.V.V.V.F.B."
};
