/* XPM */
static char *result[] = {
/* columns rows colors chars-per-pixel */
"50 50 159 2 ",
"   c black",
".  c #151932",
"X  c #1C2333",
"o  c #283B2F",
"O  c #242B3A",
"+  c #273638",
"@  c #2D323C",
"#  c #284A1D",
"$  c #384F1B",
"%  c #345717",
"&  c #274021",
"*  c #2C4B25",
"=  c #2A402A",
"-  c #3F472E",
";  c #30492C",
":  c #355822",
">  c #314736",
",  c #394636",
"<  c #3C4E39",
"1  c #3A5134",
"2  c #495C28",
"3  c #465039",
"4  c #475B3A",
"5  c #446622",
"6  c #51662D",
"7  c #4A6235",
"8  c #556939",
"9  c #5D7D39",
"0  c #667929",
"q  c #606F35",
"w  c #647C3E",
"e  c #2D3542",
"r  c #2E3944",
"t  c #2B324B",
"y  c #2E3B4A",
"u  c #303044",
"i  c #323C45",
"p  c #333C4A",
"a  c #363B53",
"s  c #334144",
"d  c #36444C",
"f  c #3A454C",
"g  c #3A494E",
"h  c #344050",
"j  c #3A4552",
"k  c #3D4A55",
"l  c #3A475E",
"z  c #3E4C59",
"x  c #424D4B",
"c  c #4B5646",
"v  c #49594B",
"b  c #424D55",
"n  c #494E53",
"m  c #424E5B",
"M  c #484D5A",
"N  c #435255",
"B  c #485153",
"V  c #4D5B53",
"C  c #44515D",
"Z  c #49555C",
"A  c #4E5A5D",
"S  c #515C5C",
"D  c #57664C",
"F  c #546352",
"G  c #6C7656",
"H  c #434D61",
"J  c #465161",
"K  c #4A5564",
"L  c #4E5B64",
"P  c #46506A",
"I  c #4D5B6B",
"U  c #515766",
"Y  c #525D64",
"T  c #565E6B",
"R  c #566164",
"E  c #586365",
"W  c #5C6967",
"Q  c #55626A",
"!  c #5B676A",
"~  c #5C696C",
"^  c #5C6770",
"/  c #5E6B72",
"(  c #626D6E",
")  c #64716F",
"_  c #6E7968",
"`  c #626E72",
"'  c #676D79",
"]  c #657274",
"[  c #6A7475",
"{  c #6C7A75",
"}  c #62707A",
"|  c #6A7579",
" . c #6E7A7A",
".. c #717972",
"X. c #707C7C",
"o. c #66813C",
"O. c #6A8848",
"+. c #788948",
"@. c #7A9044",
"#. c #78855F",
"$. c #74827D",
"%. c #79847E",
"&. c #7C897E",
"*. c #909F67",
"=. c #848978",
"-. c #899773",
";. c #677580",
":. c #6D7B82",
">. c #757E82",
",. c #737B88",
"<. c #758282",
"1. c #7A8583",
"2. c #7E8B84",
"3. c #7E8B89",
"4. c #80878D",
"5. c #828E8B",
"6. c #839086",
"7. c #86938D",
"8. c #8A948D",
"9. c #8F9B8F",
"0. c #939D8C",
"q. c #869192",
"w. c #899592",
"e. c #8D9A92",
"r. c #929D95",
"t. c #989F96",
"y. c #949D99",
"u. c #93A08F",
"i. c #95A192",
"p. c #9AA494",
"a. c #9FAA96",
"s. c #96A39D",
"d. c #9BA59B",
"f. c #9EAA9D",
"g. c #A2AB9C",
"h. c #939EA0",
"j. c #9CA5A0",
"k. c #9FAAA1",
"l. c #A2ABA3",
"z. c #A5B1A3",
"x. c #ABB4A6",
"c. c #A5B2A8",
"v. c #ABB5AC",
"b. c #ADB9AC",
"n. c #B0B9A6",
"m. c #B2BCAE",
"M. c #AFBBB2",
"N. c #B1BCB3",
"B. c #B8C5AE",
"V. c #BCC4B5",
"C. c #BCC5BA",
"Z. c #C7D2BD",
"A. c #CCD5BF",
"S. c #C1CAC5",
"D. c #C6D1CC",
"F. c #CAD4CA",
"G. c #CFD8CC",
"H. c #D1DBC9",
"J. c #D4DDD4",
/* pixels */
"                                                                                                    ",
"                                                                                                    ",
"                                                                                                    ",
"                                                                                                    ",
"                                                                                                    ",
"                                                                                                    ",
"                                                                                                    ",
"                                                                                                    ",
"                                                                                                    ",
"                                                                                                    ",
"                                                                                                    ",
"                                                                                                    ",
"                                                          d l.A.b                                   ",
"                                                          / [ g.S.y.                                ",
"                                                        k ~ b 8.f.x.G.x                             ",
"                                            s d         W b m Y 0.g.t.G.5.                          ",
"                                    Z n n S F.J.8.    z ! z z K e.g.g.t.l.S.s                       ",
"                                Y 1.H.Z.A.S.i.0.x.Z   Q N C z C j.l.l.l.d.p.z.                      ",
"                              ] G.V.0.u.i.p.f.g.l.w.  I z C N z <.f.k.g.g.f.g.%.                    ",
"                            N M.0.d.l.g.k.f.k.f.g.l.| N J C C C k j.g.d.f.g.p.m. .                  ",
"                            7.z.x.l.g.f.f.f.f.f.f.g.s.b z z C C z 1.x.j.f.f.f.d.v.                  ",
"                          y q.f.l.f.a.f.k.k.g.f.k.d.z.&.k K z L C ] C.d.d.l.z.f.N.w.                ",
"                          ]  .9.x.i.n.d.l.l.d.g.f.f.g.z.k K C K Q Z N.x.N.1.X.8.C.(                 ",
"                        h 1.{ w.x.d.y.C.p.g.g.f.f.g.p.C.>.X K k } Z E %.%. .{ $.<. .                ",
"                        b <.{ 1.g.C.1.r.F.b.d.k.f.j.b.b.Z . f m } A ~ &.{ $.X. .| <.                ",
"                        y.<.{ 1.j.m.s.[  . . . .` N n Y  .O a Z L ` z ]  .|  . .{ 1.Y               ",
"                      F c.6.| { 8.m.n.] C z m m m m C m ] e O b L | z { :. . . .{ f.|               ",
"          i           =.[ 7.X. .1.x.C.` z J z k k m J m ^ Z X d I { ] w.{ $. .{ z.2.k               ",
"          D.a.  c D 3 ..X.0.X. .%.f.m.~ k N ! W ! b d M Z A . j H _ d.3. . .| 3.w.Y z               ",
"        s a.n.B.x +.w ..;.q.<. .{ d.f.! k ~ b.v.N.4.` b Z ` n a k -.p.2.{ $. .| k m H   G           ",
"        ` r.>.v.L % 7 | { 6.8. .X.w.r.L Y d.8.0.7.1.h.A b J G x A #.3.$.{ $.] N C C z , - i         ",
"        :.} r N e.9 4  .{ ,.X.`  .2.y.N 5.w.] T S s ! >.b U 3 q V _ ' A $.` ` K C C M V c c         ",
"        q.K ] $.2.O.< W $.{  .] | 3.6.] 1.X./ k m Z C ^ k K R 0 v F ..M ] ~ ` k Z b e o 6           ",
"      d 2.d T d.1.< D ( :.{ %.] ) 3.&. . . .Z m C J M A J z Y 8 4 F *.u j  .K m z e   > $ <         ",
"      L 1.p C 5.s.+ @.$. .|  .$.! 3.1.| <.^ z J C m m C j l I 2 o.O.F   x } m m       ; : <         ",
"      g ] k C ~ 2.R 8 Z  .$. .e.2. . .>.~ N z e J C C m U Z U 7 5 8 @   Y Z p         = :           ",
"      g ` z z / 1.Q + K | $.] r.{ { X.X.K i         k m U B   1 % <     C b             *           ",
"      k L k J ` >.r t P Q <. .s.{  .` T p             i U H   & 5 +                                 ",
"          y z h       k g Q } 3.R / ] p                         #                                   ",
"                                  k j y                                                             ",
"                                                                                                    ",
"                                                                                                    ",
"                                                                                                    ",
"                                                                                                    ",
"                                                                                                    ",
"                                                                                                    ",
"                                                                                                    ",
"                                                                                                    ",
"                                                                                                    ",
"                                                                                                    "
};
