/* XPM */
static char *result[] = {
/* columns rows colors chars-per-pixel */
"50 50 198 2 ",
"   c #224D4E",
".  c #26544D",
"X  c #2A5C4E",
"o  c #244E50",
"O  c #275051",
"+  c #3D5D5D",
"@  c #325857",
"#  c #2C634C",
"$  c #2F6B4B",
"%  c #2D6E47",
"&  c #316C4C",
"*  c #33734A",
"=  c #377A4B",
"-  c #397C4C",
";  c #396857",
":  c #3A7651",
">  c #397A50",
",  c #405D5E",
"<  c #466361",
"1  c #546B6D",
"2  c #4F7367",
"3  c #586F70",
"4  c #547869",
"5  c #667B7B",
"6  c #5DB63C",
"7  c #5EB939",
"8  c #62B63F",
"9  c #64BA3B",
"0  c #75BF3F",
"q  c #7DC43E",
"w  c #3B844D",
"e  c #3E894E",
"r  c #3F8552",
"t  c #3F8850",
"y  c #418D4E",
"u  c #44934F",
"i  c #4B954F",
"p  c #428B53",
"a  c #498C53",
"s  c #438654",
"d  c #459451",
"f  c #4B9552",
"g  c #469952",
"h  c #4B9C53",
"j  c #4E935D",
"k  c #4F9C58",
"l  c #539C55",
"z  c #549C5B",
"x  c #53975B",
"c  c #5BAB4C",
"v  c #53AC46",
"b  c #4CA353",
"n  c #52A354",
"m  c #5BA556",
"M  c #53AA56",
"N  c #5AAB56",
"B  c #55A45A",
"V  c #59A75D",
"C  c #5CAD5A",
"Z  c #55AB58",
"A  c #5CB356",
"S  c #5CB259",
"D  c #6AAD4D",
"F  c #61AC4F",
"G  c #68B642",
"H  c #6EB941",
"J  c #6EB34B",
"K  c #76BC43",
"L  c #7BBD45",
"P  c #74B54D",
"I  c #7AB64D",
"U  c #7BB94C",
"Y  c #73B848",
"T  c #65A656",
"R  c #6CA55C",
"E  c #6DA95A",
"W  c #69AA53",
"Q  c #70AC56",
"!  c #7CAE56",
"~  c #73A65B",
"^  c #7BAD5C",
"/  c #77AC5C",
"(  c #61B257",
")  c #62B55A",
"_  c #64BB5C",
"`  c #6ABE5C",
"'  c #75B252",
"]  c #7DB452",
"[  c #7FB950",
"{  c #5A9964",
"}  c #568569",
"|  c #628C6E",
" . c #658875",
".. c #5BA761",
"X. c #6CAC6D",
"o. c #64A669",
"O. c #72A86E",
"+. c #6AB664",
"@. c #6CBA65",
"#. c #6BB169",
"$. c #69B664",
"%. c #72B66F",
"&. c #75B76A",
"*. c #6DA574",
"=. c #7AAD7D",
"-. c #73A579",
";. c #6EB370",
":. c #73B670",
">. c #7AB573",
",. c #77BB72",
"<. c #7ABC73",
"1. c #7BB67C",
"2. c #7FC046",
"3. c #6CC35E",
"4. c #70C85F",
"5. c #6FC262",
"6. c #72C167",
"7. c #7BCA6B",
"8. c #7AC56B",
"9. c #7EC274",
"0. c #7ECC70",
"q. c #87CA3A",
"w. c #99D33C",
"e. c #A2D83C",
"r. c #ABE035",
"t. c #81BF47",
"y. c #84BD4C",
"u. c #88BE4D",
"i. c #82B653",
"p. c #85BA51",
"a. c #84C246",
"s. c #8CC646",
"d. c #8FCB40",
"f. c #86C149",
"g. c #8BC34A",
"h. c #90C746",
"j. c #92C945",
"k. c #9CD340",
"l. c #86C253",
"z. c #80CC6E",
"x. c #84C37B",
"c. c #89C37D",
"v. c #8ACC7C",
"b. c #83CC72",
"n. c #8BD179",
"m. c #91D27F",
"M. c #778788",
"N. c #7F998B",
"B. c #7FAC84",
"V. c #838D8E",
"C. c #809C8E",
"Z. c #838F90",
"A. c #8C9798",
"S. c #909B9B",
"D. c #80AB87",
"F. c #89B48B",
"G. c #89B98D",
"H. c #86B68A",
"J. c #8FB794",
"K. c #96B99A",
"L. c #9EA8A9",
"P. c #9CB5A1",
"I. c #ADBEB1",
"U. c #AAB2B2",
"Y. c #A7BCAA",
"T. c #8BC483",
"R. c #8FC986",
"E. c #8EC788",
"W. c #93C28C",
"Q. c #94CA89",
"!. c #9CCE8D",
"~. c #93C986",
"^. c #94D183",
"/. c #9CD38B",
"(. c #9BD789",
"). c #9AC896",
"_. c #9BC29D",
"`. c #97C790",
"'. c #9FD290",
"]. c #A0CE95",
"[. c #A2D393",
"{. c #A8D798",
"}. c #B1DC9D",
"|. c #B4E09F",
" X c #AACBAC",
".X c #A6C8A7",
"XX c #B3DAAC",
"oX c #B3CDB4",
"OX c #B0C4B4",
"+X c #B8D3B8",
"@X c #BEE2AF",
"#X c #BFE1BA",
"$X c #C6DEB7",
"%X c #CAE8BD",
"&X c #C8D9CA",
"*X c #CBE3C8",
"=X c #D0EACB",
"-X c #D6E3D6",
/* pixels */
"g.g.g.g.g.g.g.g.g.g.g.j.q.P I u.g.g.g.g.g.g.g.f.g.g.q f.g.g.g.g.g.g.g.g.g.g.g.g.g.g.g.g.g.g.g.g.g.g.",
"g.g.g.g.g.g.g.g.g.g.g.f.T ~ p.g.g.g.g.g.g.a.a.g.a.2.f.a.g.g.g.g.g.g.g.g.g.g.g.g.g.g.g.g.g.g.g.g.g.g.",
"g.g.g.g.g.g.g.g.a.g.g.g.I u.g.g.g.g.g.g.g.g.q.f.a.v f.2.2.g.g.g.g.g.g.g.g.h.g.g.g.g.g.g.g.g.g.g.g.g.",
"g.g.g.g.g.g.g.g.0 g.g.g.g.g.g.g.g.g.g.g.g.g.s.2.s.U 2.a.9 g.g.g.g.g.g.g.g.g.g.g.g.g.g.g.g.g.g.g.g.g.",
"g.g.g.g.g.g.p.u.v ] g.g.g.g.g.g.i./ g.g.g.g.^ ' m ' z I F g.g.g.g.g.g.g.g.g.g.g.g.g.g.g.g.g.g.g.g.g.",
"f.g.g.g.g.g.g.g.g.g.g.g.g.g.g.g.g.g.g.g.g.g.g.g.g.g.g.g.g.g.g.g.g.g.g.g.g.g.h.h.g.g.L L f.g.g.g.g.g.",
"f.w.g.g.g.a.g.g.g.g.g.g.g.g.g.g.g.g.g.g.g.g.g.g.g.g.g.g.g.g.g.g.g.j.g.g.g.g.g.g.g.g.g.Y a.u.g.g.g.g.",
"g.H L K g.K g.g.g.g.g.g.g.g.g.g.g.g.g.g.g.g.g.g.g.g.g.g.g.g.g.g.g.j.e.L g.g.g.g.g.g.g.E W p.g.g.g.g.",
"U B 8 f.g.8 t.g.g.g.g.g.g.g.y.p.g.g.g.g.g.g.g.g.g.g.g.g.p.g.g.g.g.g.I ] i.g.g.g.g.g.g.g.g.g.g.g.g.g.",
"' x P u.g.9 a.g.g.g.g.g.g.g.y.g.g.g.g.g.g.g.g.g.g.g.g.g.p.g.g.g.g.g.c i.i.g.g.g.g.g.g.g.g.g.g.g.g.g.",
"g.g.g.g.g.g.g.g.g.g.K t.g.g.g.g.g.g.a.a.g.g.g.g.g.q a.g.g.g.g.g.g.g.J [ g.g.g.g.g.g.g.g.g.g.g.g.g.g.",
"g.g.g.g.g.g.g.g.g.g.Y g.g.g.g.g.g.g.d.K g.g.g.g.g.w.q [ B V  Xg.g.g.g.g.g.g.g.g.g.g.g.g.g.g.g.g.g.g.",
"g.g.g.g.g.g.g.g.g.g.I u.f.s.g.g.g.g.a.y.g.g.g.g.[ H.X.E.Q.b V .Xg.g.g.g.g.g.g.g.g.g.g.g.g.g.g.g.g.g.",
"g.g.g.f.a.g.g.g.g.g.g.g.g.g.g.g.g.g.g.+X1.B.g.g.J.T.}.Q...b b _.h.j.g.g.g.g.g.i.y.g.g.g.g.g.h.h.g.g.",
"g.g.h.g.q.L y.u.g.g.g.g.g.g.g.g.g. XG.#.E.`.J.oX:.^.'.@.3.A _.g.h.j.y.g.g.g.g.g.g.g.g.g.g.g.g.g.g.g.",
"g.g.g.g.q.D i.g.g.g.g.g.g.g.g.g..X'.,.$.7.'.@X/.^.Q.$.3._ M  Xg.g.f.y.g.g.g.g.g.g.h.k.L g.g.g.g.g.g.",
"g.g.g.f.g.g.g.g.g.g.g.g.g.g.g.f.$X`.$.c.9.@.{.^.7.(.~.M M b  XI H.G. Xg.g.g.g.g.g.g.I I i.g.g.g.g.g.",
"g.f.f.g.g.g.g.g.g.g.g.g.g.g.a. X*X).E.E.).M '.|.c.@.^.^.v.{.].F.*.b ..K.g.g.g.g.g.g.c i.p.g.g.g.g.g.",
"g.g.a.f.g.g.g.g.g.g.g.g.g.XX%X>.G.x.9.E.;.T.x.%.@.v.(.z.@.9.^.{.Q.b 1.B.g.g.g.p.g.g.J i.g.g.g.g.g.g.",
"g.g.g.g.g.h.g.g.g.g.g.g. X0.v./.'.6.x.R.<.#.@._ N &.z._ N ) +.x.0.b G.u.g.g.u.y.g.g.g.g.g.g.g.g.g.g.",
"p.g.g.g.g.g.g.g.g.g.g.g.-X=.3.v.^.7.` ,.Q.:.Z S h x.m.` m i i N $.X.F.D u.g.g.g.g.g.g.g.g.g.g.g.g.g.",
"p.g.g.g.g.f.g.g.g.g.g.g.+Xo.h l Z S A Z %.o.g b N 8.(.m.` N &.c.<.`.R P u.g.g.g.g.g.f.f.g.g.g.i.p.g.",
"g.g.g.g.g.U a.f.g.g.g.+XV b u u b b x.`.%.u h S c ( ^.}.c.( 7.^.^.XXl.oX*Xa.oXg.g.g.u.g.g.g.g.g.g.g.",
"g.g.g.g.g.' ' ] g.g.g.*X{ g b b b T.^.^.X.N _ M i N 8.'.W.i _ 7.^./..X_ 7.XXn oXg.g.u.g.g.g.g.g.g.g.",
"g.g.g.g.g.g.g.g.g.g.g.f.&X+XK.*.( v.7._ f C ( i y h N #.O.y A ` m A b A A 3.B g.g.g.g.g.g.g.g.g.g.g.",
"g.g.g.g.g.g.g.g.g.g.g.g.&X{ -.| C 3._ h h m f y y y u g e g A ` l s b b Z A +.g.h.g.g.g.g.g.g.g.g.g.",
"g.g.g.g.g.g.g.g.g.g.g.=X@.%X,.n b S M u n a w h n u w u e h C _ _ & s i b b @.g.g.f.g.g.g.g.g.p.g.g.",
"g.g.g.g.g.g.g.g.g.g.g.$.6.5._ _ M p h h y = w S _ f & e b x k S ` i # = p d d s g.h.L u.g.g.u.u.g.g.",
"g.g.g.g.g.h.g.g.g.g.I.d S _ M d y > g b r & e N C a * h ) C d l ` ` * * X & * U.g.g.H P u.g.g.g.g.g.",
"g.g.g.I g.g.g.g.g.g.g.I.z e e - = g b f : % % w = $ - m 6.B w - i l * = & ; B.g.g.g.~ P u.g.g.g.g.g.",
"g.g.g.g.g.g.g.e.a.g.g.g..XP.4 # g f d = * % # & = = : j 3.C : * # # * $ * < B.u.g.g.g.g.g.g.g.g.g.g.",
"g.g.g.g.g.g.g.k.P u.g.g.W P. .. t * * # % X # & = : & w M A g % # $ * # * X ; g.g.g.g.g.g.g.g.g.g.g.",
"g.g.g.g.g.g.u.i.' Y g.g.OX} X o # . % & $ X   $ : ; # > w f y * & . * & & # o A.g.g.s.g.g.g.g.g.g.g.",
"g.g.g.g.g.g.g.p.[ 2.g.g.3 o # .     # # .     # X O # * * # X = & .     o @ Z.h.g.g.h.g.g.g.g.g.j.g.",
"K f.p.G u.g.g.g.g.g.g.K.2   o .       # X           # % #   X & & &   + V.A.g.g.g.g.g.g.g.g.g.g.g.g.",
"d.K P U u.g.g.g.g.g.g.Z.@  .+                       X # o       O O   M.u.g.g.g.g.g.g.g.g.g.g.y.g.g.",
"2.m Q ] u.g.g.g.g.h.g.g.N.H.L.,                             o   o      .=.f.g.g.g.g.g.g.g.g.g.g.g.g.",
"p.E ' g.g.g.g.g.g.g.g.g.g.L g.L.M.+           o                 + M.5 + N.g.g.g.g.g.0 s.u.g.g.g.g.g.",
"g.g.g.g.g.g.g.g.t.g.g.g.g.g.g.s.g.S.1 1 1 1 1 1 1 1 1 1 1 1 1 1 A.g.D.{ g.g.g.g.g.g.9 U p.g.g.g.g.g.",
"g.g.g.g.g.g.g.g.y.i.g.g.g.g.g.g.g.g.g.g.g.D y.m j o.^ t.n ! u.g.g.g.u.u.L L u.u.g.g.6 ! u.g.g.g.g.g.",
"g.g.g.g.g.g.g.g.g.g.g.g.g.g.g.g.g.g.g.g.g.p.g.f.p.p.g.g.y.u.g.g.g.g.g.g.g.W u.p.g.g.t.u.g.g.g.h.g.g.",
"g.g.g.g.g.g.g.g.g.g.g.g.g.g.g.g.g.g.g.g.g.g.g.g.g.g.g.g.g.g.g.g.g.g.g.g.g.l ~ u.g.g.g.g.g.g.g.s.g.g.",
"g.g.g.g.g.g.g.g.L g.y.G u.g.g.g.g.g.g.g.g.g.g.g.g.g.g.g.g.g.g.g.g.g.g.g.g.g.g.g.g.g.g.g.g.g.g.g.g.g.",
"g.g.g.g.g.g.g.g.d.K J U p.g.g.g.g.g.g.g.f.g.L g.g.g.g.g.g.g.g.f.g.g.g.g.g.g.g.g.g.g.p.y.g.g.g.g.g.g.",
"g.g.g.g.g.g.g.g.L m Q ] g.g.g.g.g.h.g.g.a.J g.g.g.g.g.g.g.g.g.t.K g.g.g.f.s.g.g.g.u.g.g.g.g.g.g.g.g.",
"g.g.g.g.g.g.g.g.p.E ! g.g.g.g.g.g.g.g.g.g.2.g.g.s.g.g.g.t.g.g.g.r.t.t.t.L u.i.g.g.g.g.g.g.g.g.g.g.g.",
"g.g.g.g.g.g.g.g.g.g.g.g.g.g.g.g.y.f.g.g.g.g.g.h.g.g.g.g.a.K L g.P 8 u.a.8 i.g.g.g.g.g.g.g.u.g.g.g.g.",
"g.g.g.g.g.g.g.g.g.g.g.g.g.g.g.g.u.] g.g.g.g.g.g.g.g.g.g.g.D p.m j R ^ t.n ! u.g.g.g.g.g.L t.u.u.g.g.",
"g.g.Y g.g.g.g.g.g.g.g.g.g.g.g.g.g.g.g.g.g.g.g.g.g.g.g.g.g.y.g.u.p.p.g.f.y.u.g.g.g.g.g.g.g.T y.i.g.g.",
"g.g.P Q g.g.g.g.g.g.g.g.g.g.g.g.g.g.g.g.g.g.g.g.g.g.g.g.g.g.g.g.g.g.g.g.g.g.g.g.g.g.g.g.g.n ~ u.g.g."
};
