/* XPM */
static char *e3fba4d375e94fbdf86fa36e73babb7bNknnqvoel0oFfGy7[] = {
/* columns rows colors chars-per-pixel */
"50 50 169 2 ",
"   c #01BDD6",
".  c #02BDDA",
"X  c #08BFD8",
"o  c #17BED8",
"O  c #01C6CF",
"+  c #01C5D5",
"@  c #0AC4D5",
"#  c #02C9D6",
"$  c #0BC9D5",
"%  c #02C4D9",
"&  c #0CC3DA",
"*  c #03CBDA",
"=  c #0BCBDA",
"-  c #14C4D5",
";  c #1DC5D3",
":  c #17CFD6",
">  c #19CBD5",
",  c #12C6DC",
"<  c #1AC7DA",
"1  c #13CCDB",
"2  c #1CCCDD",
"3  c #04D2D7",
"4  c #0BDDD6",
"5  c #03D3DB",
"6  c #0BD3DB",
"7  c #03DBDD",
"8  c #0CDBDD",
"9  c #15D1D5",
"0  c #14D3DA",
"q  c #1BD4DC",
"w  c #14DCDD",
"e  c #1CDBDD",
"r  c #22C6D5",
"t  c #2DC6D7",
"y  c #24C8D0",
"u  c #2CC4DA",
"i  c #29CCDA",
"p  c #3FC9D4",
"a  c #38C5D8",
"s  c #34CCD9",
"d  c #3CCBDA",
"f  c #22D5DD",
"g  c #2BD4DA",
"h  c #24DADD",
"j  c #2EDBDF",
"k  c #3AD2D7",
"l  c #3DD4D8",
"z  c #32DCDF",
"x  c #38DEDB",
"c  c #0EE1DF",
"v  c #13E1DE",
"b  c #1CE3DE",
"n  c #21E1DE",
"m  c #35E5DF",
"M  c #3EE0DE",
"N  c #04C4E1",
"B  c #1BCCE1",
"V  c #04D4E0",
"C  c #0AD7E0",
"Z  c #03DCE1",
"A  c #0ADDE1",
"S  c #1CD3E0",
"D  c #14DEE2",
"F  c #1CDCE2",
"G  c #23D4E2",
"H  c #29D3E4",
"J  c #24DCE2",
"K  c #2BDCE3",
"L  c #2DDEEA",
"P  c #32DEE5",
"I  c #3DDCE0",
"U  c #30DCEA",
"Y  c #0EE1E1",
"T  c #15E1E1",
"R  c #1BE3E3",
"E  c #1FE9E6",
"W  c #1BE5E8",
"Q  c #1FE9E8",
"!  c #24E4E5",
"~  c #2CE3E4",
"^  c #24E9E4",
"/  c #2BEBE6",
"(  c #25E7E8",
")  c #2BE5E9",
"_  c #25EAE9",
"`  c #2CEBEA",
"'  c #32E3E5",
"]  c #3CE0E2",
"[  c #34EBE5",
"{  c #3AEAE5",
"}  c #31E2E8",
"|  c #32EBEA",
" . c #3BECEA",
".. c #2FF0E8",
"X. c #35F1EC",
"o. c #3CF3ED",
"O. c #3CF5F0",
"+. c #3AF9F5",
"@. c #42CCD6",
"#. c #4DCBD6",
"$. c #44C5DD",
"%. c #4CC5DB",
"&. c #41CDDD",
"*. c #4CCDDA",
"=. c #55CED6",
"-. c #53CDDA",
";. c #4AD5DC",
":. c #44DADF",
">. c #52D3DC",
",. c #55D8DF",
"<. c #62CCDC",
"1. c #62D2DB",
"2. c #72D7DE",
"3. c #78D8DF",
"4. c #57E2DF",
"5. c #4AD7E0",
"6. c #43DEE3",
"7. c #4BDBE2",
"8. c #51D5E0",
"9. c #5CD4E2",
"0. c #56DBE3",
"q. c #69D6E0",
"w. c #64DCE3",
"e. c #6EDDE4",
"r. c #71D5E4",
"t. c #79D6E2",
"y. c #73DBE5",
"u. c #7BD9E2",
"i. c #70DCE8",
"p. c #54E5E6",
"a. c #5CE3E5",
"s. c #41F6EF",
"d. c #42F6F2",
"f. c #4BF7F0",
"g. c #45FAF4",
"h. c #63E4E3",
"j. c #65E9E4",
"k. c #62E0E8",
"l. c #6BEBEA",
"z. c #74E3E6",
"x. c #7CE1E6",
"c. c #72E9E7",
"v. c #7BE9E6",
"b. c #73E5E8",
"n. c #7AE5E9",
"m. c #72E9E9",
"M. c #7FE9E9",
"N. c #85DCE1",
"B. c #81E3E6",
"V. c #88E2E7",
"C. c #85E6E9",
"Z. c #83E9EA",
"A. c #90E2E6",
"S. c #90E6EC",
"D. c #94EAED",
"F. c #9CEDEE",
"G. c #96F1EE",
"H. c #9DF1ED",
"J. c #ACEAE9",
"K. c #A5F0EC",
"L. c #ACF1EF",
"P. c #A6F4F1",
"I. c #ADF3F2",
"U. c #B5F6F4",
"Y. c #BDF5F2",
"T. c #BBF9F7",
"R. c #C5F7F4",
"E. c #CAF8F5",
"W. c #C1FEFC",
/* pixels */
"V Y ! ` J + + # % % + * 0 ( +.O.../ E c Z Z x 6.D.H.M.k + + + 5 5 5 3 5 * # + # # # # # # # # V 5 7 ",
"j ' P * + + % # + + + # % + # 7 c 7 c 7 c 7 p.k.y.q.@ $ + + + + # 5 A T T T R w 7 7 Y _ .._ ..Q Z Z ",
"p.c.1.% % % % G } } .     % + q | | X.X.X.) $ + % + + % 1 1 $ + 3 * S g { s.s.` J M m I :.m 4 7 Z Z ",
"X.~ # # % %     .       + # * + + q n K K $ + %   %   & L K > # + + % % + % + % ;.N.Y.E.I.a.8 c v c ",
"j % + + + % + % % % + % + + + % + +   + + % O $ * *   . .   . . & @   . . . % % # + $ $ 1 * 9 J O.g.",
"+ + + + # # # % + % + % # + + + + + V # # + % % % # % %     . X K P B . % # * * * + % % % + + % % # ",
"3 5 # + 5 Z 7 A 4 6 6 6 6 7 7 # + + + % + + + J ) 6 6 * % % % % + + % % % % % % %   + % % % % % + + ",
"% % + % + + * ~ [ ' '  .| n O + + + 0 ' ' = * % K K ~ K K g g + + + + # % % % % %   % + + + +   + + ",
"% + + + + + % # - z.B.z.2 & + + + + + + + + + + + + % i.W.T.e.@ + $ q h f 3 = $ # # # # 3 5 * * + + ",
"~ K + + + * % + + % % % + + + + O + + + + + + * 5 5 + & y ; # + O % ,.z.c.h [ ` ! A 8 8 7 3 * % + % ",
", P P > % + % . + . .   + O + * * * % + # + # % % + % % # # % # % % % + >.x.n.9 w g.g.s.e %         ",
". X - + . . % % * %     + + % # * 3 Z 7 3 5 3 * O + + $ V 5 5 V 7 7 3 + % # + + % $ $ $ + + * * . . ",
".   % % % . % % % + + ) ' g ; + + + ! X./ ^ 7 Y V Z 7 E ` ` ` T 3 # + % % % + # = * % % % % + + % % ",
"+ + # % % % + % + + # * 7.n.b.2 # + + $ $ 6 D ` ..Y Y 8 T X.| 6 + % %     % % %   .   % + % % * + + ",
"# * # + % # # # 3 7 8 A 5 # # # + + + + + + + K l.M.M.M.v.I % % + + + +   N % .   % B } ) = # 3 7 3 ",
"/ F 7 7 V c ^ / | X.g.` * + % * 3 # + + + * * < d A.J.J.y.r # % + % + + + % + + % + + + + % % % 0 s.",
"p.j.w w 8 w b  . .K 2 # + + + $ + # + + + % + + + + + + + + + % + * * 5 D ) ! % + + + + % # + % % 1 ",
"s u.K.Y.U.B.,.% % + # * + # + % # + % # # % % + + # # 5 5 7 7 7 7 7 Y _ { j : + + + + % % % % # * * ",
"% + p -.*.@ + % % + # # % % f H <   % % % $ % # V # % # 6 ~ o.f.s.~ * # % + + + + + + + % %     % % ",
"      % % + % % N # % . 1 f P B N .   % % % O + + % % % % % 1 2 q + + + # + + # 5 ` ` ! 6 * * + % . ",
"% . . . . .     % + % . & B 2 . . + + % + * 2.S.1.g # q J F 5 % + + + 5 5 5 # % * % D / ` 6 7 3 % % ",
"% @ + & ~ ~ B     . . . N .   . % 6 3 * + + X *.0.~ ^ ^ F S + + + + + # % + # # * % + + + + + + + + ",
"# = ) K S % % # * * N * % % # + + + % + % + + + % q f q $ + % % + # * # + + # * $ # + + + % + + + + ",
"% # # * + % + + + + % * % % * + + + + + + O O + % + + + + + + + + # 7 V 3 7 3 # # * * * # # * * 5 5 ",
"$ # 7 Z V 5 # # $ + + % + % % i -.;.> # # V 7 3 5 $ + + # 5 % + + + + % w | o.o.` T 7 4 A b b b X.| ",
"% % # 3 c 7 Y Z Z w e w w 0 3 z a.a.F 4 D R 7 * # + % % + + % + + % O + + % G ! ^ Q Y 8 c ` ^ ) ! = ",
"# # + * ` ^ Y T R ^ ! ^ ^ D 8 4 ` ` o.o.O.K = # + % $ K } : % % % + + + % + % - c.P.P.G.a.6 / / ! + ",
"+ + # + $ G [ d.O.! F Z.K.L.L.h.6 : h J $ + # + + %     . f L L % % % % %   % % ; r.u.=.& @ + + % + ",
"%   % % + % # + % + + @ *.3.3.; + # # + % + + # % %     .       % % # * * + + + + % + + # % + + # % ",
"% . + * = * % % % + + O % % & % + % %   % # * # 0 = $ % * + % % % + % % # # # + + + $ 5 * # + + % + ",
"% + %   %       % % %   %   .   . . .   + + # $ ~ s./ ` ` D * % # # # % + + + + + + + + + + + + # % ",
"+ + # % % + % . . . . . . . . . N V 5 * * + + + + $ $ * ! | o.| q A 5 # # # + + + + + + + + + + % # ",
"l.c X./ F + + + % %   f U P .   % % + + + % % + # % + + % G ~ ~ d.K # + * 5 5 # + + * ~ } q 6 3 Z l.",
"9 h K @ $ + + + % >.x.y.; @ % + * V % + + # # # % # + + + # + + $ % # + % + + + + % + $ K ~ / n h g ",
"+ + + # % % %   + - r ; + + + $ # # + + + + + % + % + + * * + + + + # # # + # % + % % % % % + w.y.w.",
"  % %     N * * & % %   # % * 3 3 7 8 8 Z 7 5 * 5 5 3 5 3 5 5 5 5 5 7 V A ` ~ f % % # %   % % % % % ",
"% % % . . . + + % % % # # % # + # # ! ` Q 7 D ` / ` / ` v c 7 Z Z 7 Z ` _ q % $ % + % %   N . .     ",
"+ + % % % % + % + + + % + + * 5 * + % % ! ` D T Y v |  ...^ D 5 5 5 # * = $ % + + + + # # % %   % % ",
"# + + + + + # 5 5 5 5 + + + + + + + + + * ~ ~ ! 5 5 w ' { q + % + + + # + % + + + + + # % % % % % 6 ",
"# + * F ! ~ b 7 7 5 * + # + + + + + + + + + + % + + + + + + + # + + 5 3 7 7 5 * * 3 5 * * + + + + * ",
"7 Z Z A c ^ ` ` 5 # + + - - @ O $ * 5 # % + + + # * % + + % % + + + % # ;.c.h 8 7 c c 7 Q ^ ^ ~ ! A ",
"Z W ^ ^ Y V 5 # + + + 1 b.b.4.w ) / h # + + + + # + + % + + + + + + + + r i.G.G.j.w 7 Z c v v c Y 4 ",
"A D R T 7 # + + + + + + % = b.n.a.* + + + + + + + = K K 1 % % + + + + O % % t @.p $ ) O.g.+.^ 4 6 w ",
"R.K.C.:.+ % # + # + % % + % % + + + + % + # # # # % 2 2 i u.t.$.G P P 2   +   + + + + 9 > = * l D.R.",
"*.r # * + % # # % + %     . % . % % . % . % +       . . o %.#.u . X . .   % . + + + + + + + O % y ;.",
"% + # * # + % % % + + + = #   % % % N % . % % % %   N .     +       %   + + % % # 3 5 # + O + O + $ ",
"* # $ % % # = 5 6 # + + % + + % * * $ % + % +     .   % % + + + + + % % q m ' + + % + + + % % $ # # ",
"..T 5 7 3 7 h.Z.M.> + + + + + + + + # % % % + % % + % + J ~ K O + % % % + % =.C.B.r + + + % % % + 6 ",
"i Z.Z.6.^ ` ) $ O   + * 5 5 # % % + 9 ~ ~ } | K % % % * 5 3 * % @.1.<.a   . % & % % % % N % % % % + ",
"+ % @ % + % + % + O O + * 7 7 _ ` ! # # * * % C ` ` ` ` R * # % d 9.9.d % . % N % . . % % * # % + + "
};
