/* XPM */
static char *fd52724237644f2e82db8d4c746cedebjGQS0NmI1Z03cMQR[] = {
/* columns rows colors chars-per-pixel */
"50 50 171 2 ",
"   c #06050C",
".  c #08060F",
"X  c #090B0C",
"o  c #070610",
"O  c #080710",
"+  c #0B0B14",
"@  c #0F0D19",
"#  c #120F1E",
"$  c #0F1017",
"%  c #0F1018",
"&  c #13121D",
"*  c #2D121D",
"=  c #171426",
"-  c #191623",
";  c #1A1925",
":  c #1E1D2A",
">  c #201F2D",
",  c #211F30",
"<  c #1F202B",
"1  c #21212E",
"2  c #242433",
"3  c #282737",
"4  c #272836",
"5  c #282836",
"6  c #282738",
"7  c #2A2A3A",
"8  c #3E2130",
"9  c #312E3B",
"0  c #2F303F",
"q  c #31313F",
"w  c #442339",
"e  c #572C3C",
"r  c #2F2F41",
"t  c #312F40",
"y  c #2F3041",
"u  c #343445",
"i  c #393745",
"p  c #373845",
"a  c #3D3C47",
"s  c #353648",
"d  c #39374A",
"f  c #373849",
"g  c #3B394B",
"h  c #3F3C50",
"j  c #413D50",
"k  c #623243",
"l  c #723448",
"z  c #444349",
"x  c #464352",
"c  c #494756",
"v  c #49465B",
"b  c #4C485D",
"n  c #515057",
"m  c #5A595E",
"M  c #4F4C62",
"N  c #514D63",
"B  c #534F68",
"V  c #565263",
"C  c #595464",
"Z  c #57536B",
"A  c #59556C",
"S  c #5C596D",
"D  c #5B5771",
"F  c #5F5B76",
"G  c #615C6E",
"H  c #625D75",
"J  c #645F7A",
"K  c #646369",
"L  c #68676E",
"P  c #6A6A6D",
"I  c #646072",
"U  c #686375",
"Y  c #65607B",
"T  c #6B667C",
"R  c #6E697B",
"E  c #706F76",
"W  c #736C7E",
"Q  c #727275",
"!  c #75737E",
"~  c #6B6683",
"^  c #6E6883",
"/  c #6E6889",
"(  c #726D82",
")  c #736E8C",
"_  c #777184",
"`  c #797186",
"'  c #76708D",
"]  c #7B758A",
"[  c #7E798B",
"{  c #7A7391",
"}  c #7F7A96",
"|  c #7E7798",
" . c #827C8D",
".. c #847D93",
"X. c #847D9C",
"o. c #847DA1",
"O. c #848487",
"+. c #85848C",
"@. c #88888A",
"#. c #868094",
"$. c #888194",
"%. c #8D8B94",
"&. c #85809B",
"*. c #8E859C",
"=. c #90879F",
"-. c #938C9F",
";. c #929296",
":. c #94949A",
">. c #9D9D9F",
",. c #8C84A4",
"<. c #8F89A3",
"1. c #8D85AC",
"2. c #9289A3",
"3. c #968DA9",
"4. c #988FAC",
"5. c #9691A3",
"6. c #9A96A2",
"7. c #9E9CA2",
"8. c #9A93AA",
"9. c #9B93B0",
"0. c #9E94BA",
"q. c #A09FA3",
"w. c #A29FAA",
"e. c #A097B4",
"r. c #A299B4",
"t. c #A197BC",
"y. c #A59BBA",
"u. c #A89EBD",
"i. c #A99EBD",
"p. c #9FA0A3",
"a. c #A2A1A6",
"s. c #A4A2AD",
"d. c #A6A2B3",
"f. c #A9A5B3",
"g. c #AEACB3",
"h. c #ADA3BE",
"j. c #B3AEBC",
"k. c #B5B3B8",
"l. c #B6B2BE",
"z. c #A79DC2",
"x. c #A99FC1",
"c. c #ABA1C4",
"v. c #B1A7C3",
"b. c #B3ABC3",
"n. c #B4AAC9",
"m. c #B8ADCC",
"M. c #BAB4C3",
"N. c #BDBAC3",
"B. c #BEB3CD",
"V. c #BFB3D3",
"C. c #C1BEC6",
"Z. c #C0BBC9",
"A. c #C0B4D2",
"S. c #C6BDD2",
"D. c #C8BBDD",
"F. c #C2C1C3",
"G. c #CBC5D4",
"H. c #CECAD4",
"J. c #D3CCDB",
"K. c #D7D2DC",
"L. c #D2C4E3",
"P. c #D5CBE3",
"I. c #DBD3E3",
"U. c #DFD0F0",
"Y. c #E3DCEB",
"T. c #E7DEF2",
"R. c #EADCF7",
"E. c #E9DCF8",
"W. c #EDE3F8",
"Q. c #F0E7F8",
"!. c #F0E8F8",
/* pixels */
"X X X X X X X X X X X X X X X X X X X X X X X X X X X X X X X X X X X X X X X X X X X X X X X X X X ",
"X X X X X X X X X X X X X X X X X X X X X X X X X X X X X X X X X X X X X X X X X X X X X X X X X X ",
"X X X X X X X X X X X X X X X X X X X X X X X X X X X X X X X X X X X X X X X X X X X X X X X X X X ",
"X X X X X X X X X X X X X X X X X X X X X X X X X X X X X X X X X X X X X X X X X X X X X X X X X X ",
"X X X X X X X X X X X X X X X X X X X X X X X X X X X X X X X X X X X X X X X X X X X X X X X X X X ",
"% % % $ $ $ $ $ $ % % % % $ $ $ $ $ $ $ $ % $ $ % $ $ $ $ $ $ $ $ % % % % % % % $ $ $ $ $ $ $ $ $ $ ",
"% % % % % % $ $ % % % % % % % % $ $ $ $ % % % % % % % % $ $ $ $ % % % % % % % % $ $ $ $ % % % % $ $ ",
"% % % % % $ $ $ % % % % % % % % $ $ $ $ % % % % % % % % % $ $ $ % % % % % % % e k $ $ $ % % % % % $ ",
"% % % % + % % @ $ $ & + + & $ @ % % % % % % % + % % $ $ $ % % % + % % % % % + * * $ @ @ % % @ @ % % ",
"& & & & = & & 8 - + & & & - & & = @ = = % & & = & & = = % # = # = # & & @ = = @ # = % = = % = # & & ",
"= = = = = = = l w # = = = = = = = = = = = = = = = = = = = = = = = = = = = = # = = = = = = = = = = = ",
"= = = = = = = = = & = = = = = = = = = = = = = = = = = = = = = = = = = = = = % = & = = = = = = = = = ",
"= = = = = = - 2 2 2 5 2 4 2 2 5 2 4 2 2 4 = = = = - - ; 4 < , 4 < 2 2 2 1 1 2 1 > 1 = = = = = @ O + ",
"= = = = = , ; 5 2 2 5 2 2 4 2 5 2 2 2 2 4 - = = = : 2 ; 4 , < 2 2 < < 2 1 1 2 1 1 2 # = = # @ : : y ",
"= = = # , : = 7 2 5 7 1 7 1 7 5 1 A h./ / - = = & : < ; 7 2 3.<.{ ..r.1 7 1 ' r.M.a.# = = # , 2 < 7 ",
"= = , # , , & 2 . : :   1 . > ; X M c.c.A.= = = @ b >.; 1 ; o.c.L.2.h.& 1   Y c.L.M.= = = = = , 2 4 ",
"= = = # : : - 7 : 4 6 : 4 < 4 4 < v ,.r.M.= = = % D q.; 3 2 ) 3.S...<.1 7 : D <.c.7.= = = # , 2 1 q ",
"= = = # > > : C =.O.%.*.H 7 7 7 7 7 4 ( [ - = = @ h 2 : R ..:.O.*.c 7 7 7 4 7 4 7 7 = = = # , , ; 7 ",
"= = = # N 5 Z Z c.V.J.,.2.O : : X 1 o ) z.- = = # C v g / x.L.Z.y.I - & 1   : - - < # = = # V , & 4 ",
"= = = # $.9 Z Z c.B.H.,.2.O : : X 1 o / z.= = = # ,.c g / u.L.N.t.U ; & 1 . < - & : = = = # *.; & 1 ",
": = = = W 7 : r f f a f s u u u s u u u f - = = # ` 1 > t u u u u u u u u f u u u q # = = # ( , < 0 ",
"= = = # , , b T A.b.N.W.N.V.G.K.c.h.V.G.I.- = = # 1 1 ; 2 : & , @ ..m.B.d.Q.H.Y.I.N.# = = # , , ; 4 ",
"= = = # : , S A c.4.9.U.l.c.V.K.,.0.u.A.K.- = = # > ; ; 1 ; & 1 . ~ x.x.M.R.S.Y.J.M.& = = # , : & 1 ",
"= = = = : < d g / ` +.*.! ^ ` $.D Y T ` $.- = = # > 1 ; 5 5 5 7 2 b T [ S =. .%.} ! - = = # , , ; 5 ",
"= = = = , , = r 2 7 4 1 7 2 4 4 2 S u.f.M.: = = # , n z 6.Z.3.$.1 7 2 2 7 1 ' r.M.s.= = = # 1 g m %.",
"= = = # , 6 = , o : :   < . < : . N x.B.I.= = = # , 5.P h.I.o.3.  < - & 1   Y c.L.N.# = = @ 2 ` @.w.",
"= = = # : : = 6 : 5 4 : 7 < 4 4 : v 1.r.l.= = = # > #.m =.M.) ..< 4 2 1 5 : D 2.h.7.# = = # , ( Q ..",
"= = = = , , : V *.u 7 7 V *.O.%.*.I 4 7 4 - = = # 2 2 ; 7 7 7 7 5 T #.;.O.*.b 7 7 6 = = = # , , : H ",
"= = = # N @.A A c.i 1   B c.A.J.,.2.O : ; = = = # C O.; 1 ; $ 1   ~ u.L.N.0.R & & 1 = = = # , s b J ",
"= = = # ..a.Z S c.i : X B x.V.J.o.2.. < ; - = = # *.7.; 1 - & 1 . ~ z.L.Z.0.R = & 2 # = = # , u v J ",
"= = = # W L : 7 s u u f u d s u y u y u u - = = # _ K : r r u u f s f p u u u u t r - = = @ : 2 : t ",
"= : = # , g - 3 @ 2.c.R.N.A.c : @ 2 @ < > = = = # 2 : ; 2 : y.M.W.f.m.- 2 + 1 = ; , # = = = , 1 - 2 ",
"= = = = $.H - 2 O ' y.U.l.c.x : X 2   : : - = = = *.- - 1 = o.v.R.8.u.& <   < - & 1 = = = @ D : - 1 ",
"= = = # ..C = 5 2 N Y *.! ~ u 7 2 7 2 7 4 = = = # *.1 ; 7 6 S ( -.H T 5 7 4 7 4 4 4 = = = @ Z : ; 7 ",
"6 6 , , 1 2 ; 7 2 ..8.{ ' u.z 7 2 7 2 ( 8.< 2 4 ; 1 u 5 ] e.w.q.H.5.r.M.f.y.<.r.M.a.2 4 2 : , 2 ; 7 ",
"6 6 6 , W 7 & 2 O ' t.D.d.x.x : X : . F ^ 1 6 2 ; _ v g / z.A.M.E.6.c.L.N.0.3.c.L.l.1 4 2 : , : & 2 ",
"2 6 2 : ..9 - 5 < Y *.B.6.2.j 2 < 7 < J ,.: 4 4 : *.g u H ,.4.5.A.#.<.h.s.&.{ <.c.7.2 4 7 : : : - 5 ",
"2 2 6 : V 6 > K p.` ] 7 7 7 7 7 7 7 4 r 7 > 7 4 ; C 2 : ! :...T 4 7 7 7 7 4 7 4 7 4 < 4 2 : , , > Q ",
"r 7 r 2 d O.q.$.W.X.y.  1 o 1 : O < O : : 2 7 7 < , g.P j.I.o.3.  < - & 2   : = & 2 4 7 7 1 d 6.@.8.",
"s s s 6 Z 7.>...W.} r.o 1 O : : + < . < ; 7 s u 2 > F.P h.I.X.3.. : - & < . : - & 1 y u f 4 A k.O.8.",
"s s d 7 v K > q d s f f u u u u u u u u u 5 s s 2 , K > u d i i f u u u u u u s f u 0 s s 4 b K : u ",
"s s s 7 > 2 v Y V.S.J.T.N.A.x : c.c.n.3.n.7 s s 2 > j t X.n.Y.H.!.d.m.- M m.r.c.r.e.q s s 4 , 2 ; 2 ",
"s s s 7 : > A S c.V.J.U.l.c.x : ,.c.P.&.i.7 p s 5 > v j / u.L.G.R.6.x.& x 0.v.S.X.8.7 u s 2 : : - 1 ",
"s s d 9 = > g g / ` +.*.! ^ u 2 S ( 2.S T 7 s s 2 > 9 3 b T .. .2.I T 6 s J ' %.Z H u u s 6 , : ; 7 ",
"f f s y , , = 7 1 5 7 1 ! H.f.l.8..., 7 7 7 d d 4 , n z 6.C...R 1 5.C.M.f.u.G 2 2 4 y d d 4 , 7 9 ( ",
"1.1.1.' : > & 5 O : :    .W.S.K.,.2.O ; ; ~ 1.1.H >  .P h.Y./  .  d.Y.L.N.0.E - - , | 1.1.~ , s b J ",
"1.1.1.) : : - 7 1 4 2 1 W S.r.j.) [ < 5 3 ^ 1.1.H > P m 5.M.D H > =.M.v.s.&.S 2 2 4 | 1.1.~ : r j S ",
"1.1.1.) > 2 : 7 4 _ ] >. .2.f 7 7 B *.O.;.~ 1.1.H 1 2 ; ! :.:.@.a.] ..7 7 5 T $.;.! X.1.1.~ , , : 7 ",
"1.1.1.{ N M 7.2 o ' y.U.l.c.x : O M x.V.K.~ 1.1.H C  .P j.I.P.G.T.8.x.& 1   T x.D.M.X.1.1.~ g , - 1 ",
"1.1.1.{ $.F a.2 o ' y.U.M.x.z : O M z.A.I.~ 1.1.J *.! P h.I.L.H.R.6.u.& 1   ~ x.J.M.| 1.1.~ A ; & 2 "
};
